<?xml version="1.0" encoding="utf-8"?>
<!-- Generator: Adobe Illustrator 24.0.2, SVG Export Plug-In . SVG Version: 6.00 Build 0)  -->
<svg version="1.1" id="Layer_1" xmlns="http://www.w3.org/2000/svg" xmlns:xlink="http://www.w3.org/1999/xlink" x="0px" y="0px"
	 width="2000px" height="2000px" viewBox="0 0 2000 2000" style="enable-background:new 0 0 2000 2000;" xml:space="preserve">
<style type="text/css">
	.st0{fill:#474B59;}
	.st1{fill:#5B5E71;}
	.st2{fill:#FFFFFF;}
	.st3{fill:#CAD0DD;}
	.st4{enable-background:new    ;}
	.st5{fill:#F34858;}
	.st6{fill:#FA5168;}
	.st7{fill:#F9607F;}
	.st8{fill:#EFAC41;}
	.st9{fill:#E4E8F4;}
	.st10{fill:#F9BB4A;}
	.st11{fill:#FED57A;}
	.st12{fill:#3F434F;}
	.st13{fill:#A4A9B3;}
	.st14{fill:#748BFD;}
	.st15{fill:#576CFB;}
	.st16{fill:#D8983A;}
</style>
<g>
	<g>
		<g>
			<path class="st0" d="M1609.95,749.47v63.2c0,7.77-5.18,15.54-15.28,21.5l-798.28,463.9c-20.72,11.92-54.13,11.92-74.85,0
				l-431.52-249.17c-10.36-5.96-15.54-13.73-15.54-21.76l0.26-63.46c0,8.03,5.18,15.8,15.54,22.02l431.52,248.91
				c20.72,12.17,54.13,12.17,74.85,0l798.02-463.64C1605.03,765.01,1609.95,757.24,1609.95,749.47z"/>
		</g>
	</g>
	<g>
		<g>
			<path class="st1" d="M1594.49,727.54c20.67,11.93,20.78,31.41,0.24,43.35l-798.16,463.84c-20.7,12.03-54.16,11.94-74.83,0
				l-431.46-249.1c-20.67-11.93-20.95-31.32-0.24-43.35l798.16-463.84c20.54-11.93,54.16-11.94,74.83,0L1594.49,727.54z"/>
		</g>
	</g>
	<g>
		<g>
			<g>
				<polygon class="st2" points="1421.37,653.7 1411.84,659.23 1281.69,584.09 1291.22,578.56 				"/>
			</g>
		</g>
		<g>
			<g>
				<path class="st2" d="M1551.33,725.11c22.99,13.27,23.11,34.85,0.11,48.22L800.6,1209.67c-23,13.37-60.25,13.37-83.24,0.1
					l-383.83-221.6c-23.15-13.37-23.27-34.95-0.27-48.31l750.84-436.34c23-13.37,60.25-13.37,83.41,0l84.17,48.6
					c4.96,2.86,4.99,7.45,0.06,10.31l-12.16,7.07c-5.75,3.34-5.55,8.78,0.23,12.13l176.45,101.87c5.79,3.34,15.18,3.44,20.93,0.1
					l12.16-7.07c4.93-2.86,12.84-2.86,17.64-0.1L1551.33,725.11z"/>
			</g>
		</g>
	</g>
	<g>
		<g>
			<g>
				<path class="st3" d="M877.33,735.43c-2.94,1.7-5.73,3.46-8.4,5.24l0.34,3.28c2.76,0.91,6.13,1.74,9.26,1.6
					c2.89,0,5.79-1.26,8.44-1.95c1.94-2.09,3.76-3.98,5.82-6.14c-0.84-0.35-2.52-0.91-4.93-1.88c2.05-0.77,3.38-1.4,5.31-2.09
					l-3-1.6c-2.05-0.21-5.18-0.63-6.26,0C881.64,733.02,879.45,734.21,877.33,735.43z"/>
			</g>
		</g>
		<g>
			<g>
				<path class="st3" d="M824.42,679.09c-2.67,1.54-4.88,3.64-6.25,6.47c4.83-1.26,7.6-2.02,10.37-2.79l0.96,1.12
					c-3.86,1.12-8.08,2.02-11.58,3.49c-0.77,0.35-1.5,0.74-2.2,1.14c-2.45,1.41-4.49,3.06-6.75,4.58l2.16,1.26
					c3.5-1.46,6.88-2.86,10.38-4.32c0.47,1.39,1.07,2.86,1.78,4.53c-2.65,0.56-5.91,1.19-8.92,1.81l-0.01,1.12
					c2.65,0.28,5.3,0.7,8.06,1.05c-7.72,1.35-15.25,2.82-20.69,5.96c-1.86,1.08-3.48,2.35-4.78,3.88l1.56,1.6
					c6.51-1.67,13.15-3.42,19.9-5.23c0.12,0.49,0.23,1.4,0.35,2.72c4.46-0.49,8.92-1.12,13.38-1.6l0.47,2.09
					c-0.18,0.17-0.39,0.33-0.64,0.47c-0.24,0.14-0.51,0.26-0.82,0.37c-1.21,0.7-2.3,1.33-2.54,2.02l2.75,3.14
					c6.98,0.7,6.98,0.56,5.76,4.47c6.61,2.02,14.56,1.46,19.4-1.33l3.62-0.84l0.47,1.95l-1.46,2.37c0.96,1.4,2.64,2.51,3.95,3.84
					c1.33-1.05,3.5-2.02,3.99-3.14c0.4-1.21,0.55-2.44,1.64-3.07c0.92-0.53,2.51-0.63,5.48,0.07c-2.42,2.09-4.6,3.91-6.78,5.86
					c8.39,2.05,17.91,0.75,23.81-2.66c0.53-0.31,1.03-0.63,1.5-0.97c0.11-0.08,0.24-0.17,0.38-0.25c1.77-1.02,5.99-1.95,7.22-1.49
					c5.77,2.23,9.87,0.84,14.1-1.19c4.59-2.23,8.46-4.74,15.18-1.26c4.2,2.16,10.7,2.86,16.48,3.84c2.65,0.43,4.39,0.49,5.83-0.34
					c0.91-0.53,1.7-1.42,2.5-2.8c4.63-8.65-5.82-13.88-10.36-20.44c-0.96-1.26-5.65-1.74-8.78-2.3c-2.29-0.35-6.51,0.28-7.1-0.49
					c-1.2-1.12-0.1-3-0.09-4.67c-1.44-0.14-3.61-0.28-5.9-0.35c0.97-0.98,2.18-1.95,3.27-3c-2.76-2.44-5.87-5.09-8.39-7.81
					c-4.13-4.4-4.18-6.73,0.72-9.55c0.93-0.53,2.03-1.09,3.32-1.68c1.48-0.7,2.95-1.4,4.26-2.15c3.28-1.89,5.62-4.16,4.95-7.75
					c-3.02,1.19-5.67,2.16-8.09,3.14l-1.32-0.77c3.14-1.81,6.28-3.63,9.55-5.51l-1.44-1.12c-4.1,0.56-8.08,1.47-12.3,1.81
					c-5.06,0.42-10.14,4.05-15.42,0.14l-3.86,1.12c-2.65,0.56-5.43,1.33-8.2,1.26c-4.84-0.05-8.84,0.52-11.76,2.21
					c-1.22,0.71-2.26,1.61-3.08,2.74l-0.49,0.7c-2.23,0.02-3.56,0.29-4.32,0.73c-2.07,1.19,0.1,3.63-0.17,5.62
					c-2.52-0.77-4.21-1.33-6.97-2.09c-2.06,1.74-4,3.56-6.3,5.58c-1.68-0.56-3.73-1.47-6.73-2.65c-0.5,1.64-1.49,2.76-2.88,3.57
					c-2.34,1.35-5.81,1.79-10.04,2.22C832.29,675.99,827.95,677.05,824.42,679.09z"/>
			</g>
		</g>
		<g>
			<g>
				<path class="st3" d="M1017.52,661.98c-2.42,1.4-3.87,3.21-5.69,4.81l2.16,0.84c3.49-0.35,7.23-0.7,12.41-1.19
					c-1.32-1.6-2.03-3.14-3.71-4.26L1017.52,661.98z"/>
			</g>
		</g>
		<g>
			<g>
				<path class="st3" d="M1041.92,604.11c-4.22,2.44-5.89,8.43-2.71,10.42c6.75-1.44,13.27-3.01,20.03-4.18
					c1.78-0.31,3.01-0.72,3.84-1.2c2.56-1.48,1.45-3.62,1.37-5.56c-4.57-0.56-8.66-1.4-12.76-1.53c-2.65-0.14-5.66,0.49-8.08,1.33
					C1043.02,603.56,1042.45,603.8,1041.92,604.11z"/>
			</g>
		</g>
		<g>
			<g>
				<path class="st3" d="M1039.21,614.53c-0.12,0.02-0.23,0.05-0.35,0.08L1039.21,614.53
					C1039.22,614.54,1039.22,614.53,1039.21,614.53z"/>
			</g>
		</g>
		<g>
			<g>
				<path class="st3" d="M993.29,622.89c-0.95,0.55-1.81,1.1-2.54,1.7c-1.21,0.98-1.7,2.37-2.55,3.56c2.29,0.35,4.69,1.33,6.5,1.12
					c1.88-0.28,3.36-0.76,4.43-1.38c3.16-1.83,2.7-4.84-1.61-7.34C996,621.42,994.56,622.16,993.29,622.89z"/>
			</g>
		</g>
		<g>
			<g>
				<path class="st3" d="M1007.22,613.78c-0.07,0.04-0.12,0.08-0.15,0.13c-1.34,2.72-1.24,5.72-1.61,8.58l0.96,0.7
					c4.83-1.95,9.17-3.77,13.4-5.51c1.82-0.82,3.9-1.49,5.52-2.43c0.31-0.18,0.61-0.37,0.88-0.57c1.09-0.77,0.98-2.23,1.46-3.35
					c-2.17,0.14-4.34,0.14-6.39,0.35c-2.05,0.35-4.1,0.98-6.27,1.26C1012.55,613.33,1008.18,613.23,1007.22,613.78z"/>
			</g>
		</g>
		<g>
			<g>
				<path class="st3" d="M1015.79,604.42l-0.37,1.74l6.62,0.21c2.05-0.07,4.46-0.21,6.27-0.7c2.77-0.77,5.31-1.81,7.73-2.93
					l0.01-1.95l-3.97-0.63C1026.53,601.56,1021.1,603.03,1015.79,604.42z"/>
			</g>
		</g>
		<g>
			<g>
				<path class="st3" d="M983.06,615.23c-3.67,2.12-4.27,4.86-0.98,8.1c1.8-0.29,3.05-0.71,3.94-1.22c3.23-1.86,1.59-4.92,3.21-6.94
					l-5.54-0.28C983.48,615,983.26,615.12,983.06,615.23z"/>
			</g>
		</g>
		<g>
			<g>
				<path class="st3" d="M970.41,623.94c-0.95,0.55-0.64,2.1-1.11,3.85c2.95-0.13,6.01,0.17,6.76-0.26
					c0.05-0.03,0.08-0.06,0.11-0.09c0.85-0.91,0.86-2.58-0.1-3.56l-5.54,0C970.48,623.9,970.44,623.92,970.41,623.94z"/>
			</g>
		</g>
		<g>
			<g>
				<path class="st3" d="M948.88,623.58c-2.9,1.67-1.88,7.62,1.11,9.23c3.58,1.54,7.39,2.7,11.34,0.42
					c0.15-0.09,0.31-0.18,0.46-0.28c2.78-1.74,3.06-8.44-0.19-9.21c-3.61-0.84-8.54-1.33-11.92-0.49
					C949.39,623.33,949.12,623.44,948.88,623.58z"/>
			</g>
		</g>
		<g class="st4">
			<g>
				<g>
					<path class="st3" d="M1012.91,624.45c10.23,0.49,12.87,2.72,11.03,8.65c2.77,0.91,5.29,1.67,8.78,2.72
						c2.3-1.33,4.95-2.58,7.49-3.77c2.42-1.18,4.89-2.38,7.18-3.7c5.12-2.96,9.32-6.52,10.02-11.93c-3.38,0.98-5.91,1.74-10.38,2.93
						c3.14-2.23,5.2-3.56,7.74-5.44c-6.26,0.28-11.08,0.42-15.9,0.7l0.24,0c-2.37,1-5.02,1.88-7.05,3.05
						c-2.52,1.45-4.06,3.35-2.88,6.44C1022.68,621.45,1017.74,622.91,1012.91,624.45z"/>
				</g>
			</g>
			<g>
				<g>
					<path class="st3" d="M1000.72,629.82l0.95,3.21l1.2,0.56c2.28,1.88,4.43,5.37,9.26,3c0.05-0.03,0.1-0.06,0.15-0.08
						c2.62-1.51,2.55-4.99,3.86-7.52l-3.25-0.49c-0.97,0.84-1.7,1.67-2.54,2.72l-2.88-1.54
						C1005.3,629.54,1003.01,629.75,1000.72,629.82z"/>
				</g>
			</g>
			<g>
				<g>
					<path class="st3" d="M984.65,639.23l1.55,1.88c5.42-0.49,10.97-1.05,16.63-1.54l0.97-1.12c-3-1.05-6.12-3.14-8.66-2.93
						C991.41,635.89,988.15,637.91,984.65,639.23z"/>
				</g>
			</g>
			<g>
				<g>
					<path class="st3" d="M1019.78,638.53c-1.08,0.62-1.22,2.06-1.07,4.54c3.5-1.19,6.03-2.09,10.38-3.63
						C1023.8,638.22,1021.09,637.77,1019.78,638.53z"/>
				</g>
			</g>
			<g>
				<g>
					<path class="st3" d="M972.07,632.46c-1.72,0.99-3.36,2.21-2.94,2.66c3.42,3.59,1.23,5.79-2.07,7.69
						c-0.74,0.42-1.53,0.84-2.32,1.24c-0.97,0.56-1.93,0.98-2.9,1.53c-4.71,2.72-4.71,3.14-0.03,5.44c2.36-1.36,4.53-2.65,6.66-3.88
						c2.13-1.23,4.21-2.4,6.39-3.51c0.15-0.08,0.29-0.15,0.43-0.24c4.33-2.5,6.87-8.02,4.21-10.93l-5.41-1.05
						C973.49,631.69,972.77,632.06,972.07,632.46z"/>
				</g>
			</g>
			<g>
				<g>
					<path class="st3" d="M976.79,644.05l-0.01,1.12c2.16,0.98,4.45,1.88,6.49,2.79c-4.92-0.06-10.14-1.63-13.58,0.36
						c-0.86,0.49-1.61,1.21-2.21,2.22c-0.49,0.7,3.24,2.16,4.8,3.21c-2.17,0.56-5.67,1.05-8.44,2.23c-0.19,0.07-0.39,0.17-0.6,0.29
						c-1.32,0.76-2.71,2.3-2.19,2.85c3.71,3.84-0.04,6.98-2.47,10.32c-3.03,4.26-1.96,5.3,7.31,6.49
						c-1.95,3.63-3.77,7.19-5.72,10.95c4.21,0.77,7.82,1.33,12.63,2.16c-0.35-2.44-0.7-4.19-0.69-6l1.58-2.16l3.25,0.49l0.71,2.23
						c-3.52,4.4,2.14,5.44,7.79,7.33c0.73-1.95,1.22-3.49,1.96-5.58c1.07,2.02,2.03,3.42,2.74,4.81l2.53,0.21
						c0.98-2.79,2.44-5.72,2.7-8.65c0.27-1.93,0.35-3.68,2.44-4.89c0.86-0.49,2.05-0.9,3.74-1.18c0.16-0.03,0.3-0.08,0.43-0.16
						c1.06-0.61,1.24-2.57,2-3.75c-2.53-0.07-5.06-0.42-7.35-0.07c-1.93,0.28-3.63,2.09-5.43,2.02c-3.97-0.07-8.43-0.42-11.43-1.6
						c-1.32-0.63,0.14-3.56,1.72-5.3c-1.07-1.88-2.15-3.63-2.74-4.67c7.01-4.05,12.45-7.19,18.12-10.46
						c-3.36-2.93-1.76-7.88-10.43-8.44C983.3,643.07,980.16,643.77,976.79,644.05z"/>
				</g>
			</g>
		</g>
		<g>
			<g>
				<path class="st3" d="M894.63,645.24c-5.22,3.02-8.64,6.74-7.51,9.55c4.59-1.81,8.69-3.49,13.04-5.16
					c5.15,3.65,12.73,3.71,18.24,0.53c0.4-0.23,0.78-0.47,1.15-0.73c0.1-0.07,0.21-0.13,0.32-0.2c1.64-0.95,4.45-1.63,7.04-1.83
					c5.06-0.42,10.48-0.35,14.09-0.49c4.09,0.84,8.54,2.44,9.74,1.88c2.55-1.24,5-2.56,7.37-3.93c3.24-1.87,6.35-3.83,9.42-5.76
					l-0.22-2.93c-6.51,0.84-12.05,1.53-17.72,2.3c-1.8-1.6-3.24-3-5.27-4.88c-1.46,1.67-2.54,2.72-3.64,3.91l-1.2-0.7
					c-4.1,0.98-8.2,1.95-12.3,2.93c1.81-1.05,3.99-1.88,6.16-2.72c2.1-0.8,4.2-1.62,5.87-2.58c3.42-1.97,5.11-4.6,1.66-9.14
					c-0.24,0.21-0.51,0.39-0.79,0.56c-1.45,0.84-3.45,1.2-5.36,1.61c-2.08,0.35-4.12,0.72-5.56,1.56c-1.16,0.67-1.93,1.63-2.05,3.12
					l-3.86,0.84c-3.11-0.5-5.04,0.11-6.65,1.04c-0.63,0.37-1.21,0.78-1.8,1.19c-0.6,0.46-1.19,0.89-1.85,1.27
					c-0.94,0.54-2,0.97-3.35,1.17l1.19,2.37C905.27,640.46,899.25,642.58,894.63,645.24z"/>
			</g>
		</g>
		<g>
			<g>
				<path class="st3" d="M875.27,771.09l-0.74,2.65c2.15,3.07,4.18,5.37,5.62,7.88c1.19,2.09,1.42,4.33,2.01,6.49
					c0.71,2.37,8.53,3.28,13.72,1.4c3.5-1.33,6.64-2.86,10.14-4.33c-5.53-1.81-11.06-3.63-16.59-5.44l-1.69,1.12
					c0.25-1.81,0.5-3.63,0.87-5.37c0.38-2.72-7.81-4.12-3.57-7.39l-3.61-0.14C879.62,768.58,878.17,769.55,875.27,771.09z"/>
			</g>
		</g>
		<g>
			<g>
				<path class="st3" d="M1012.73,721.07c1.3,4.67-1.86,9.42,8,12.21c2.79-3.28,5.33-6.28,8.61-9.98
					C1025.99,719.39,1018.87,722.25,1012.73,721.07z"/>
			</g>
		</g>
		<g>
			<g>
				<path class="st3" d="M892.53,773.54c-1.39,0.8-1.39,1.81,1.13,3.48c6.36,4.26,11.79,1.81,17.83,0
					c-3.83-4.74-10.08-6.42-16.84-4.33C893.78,772.96,893.06,773.24,892.53,773.54z"/>
			</g>
		</g>
		<g>
			<g>
				<path class="st3" d="M1141.78,750.91c-2.36,1.36-3.02,3.55-1.47,6.93c5.07-2.93,9.79-5.65,15.47-8.93
					C1149.41,748.87,1144.48,749.35,1141.78,750.91z"/>
			</g>
		</g>
		<g>
			<g>
				<path class="st3" d="M1157.32,732.86c-5.31,3.07-9.11,8.64-8.51,14.09c3.8-0.34,5.96-0.67,7.06-1.3
					c1.38-0.8,1.11-2.08,0.32-4.49c-1.13-3.33,0.93-5.86,4.58-7.96c1.7-0.98,3.74-1.87,5.96-2.71
					C1163.44,730.29,1160.16,731.22,1157.32,732.86z"/>
			</g>
		</g>
		<g>
			<g>
				<path class="st3" d="M1302.73,884.84c-1.18,0.68-2.3,1.4-3.44,2.06l2.28,1.33c3.02-1.19,6.28-2.37,10.62-4.05
					c-2.65-0.56-4.93-1.46-5.65-1.19C1305.15,883.51,1303.91,884.16,1302.73,884.84z"/>
			</g>
		</g>
		<g>
			<g>
				<path class="st3" d="M1003.18,642.03c1.44,1.4,2.39,2.79,4.07,4.05c2.19,1.61,2.1,3.83-0.33,5.24c-0.63,0.36-1.41,0.67-2.35,0.9
					c1.92,1.53,3.84,2.93,6.84,5.09c-5.29-0.7-9.27-1.33-13.24-1.81l-5.06,0.7c-1.33,0.91-2.43,3.07-1.59,3.42
					c3.36,1.81,7.2,3.91,11.54,4.47c2.41,0.28,5.91-2.16,8.93-3.49l-0.72-1.4c5.3,0.7,10.35,2.09,15.53,2.02
					c6.5,0,13.02-1.39,19.4-1.6c5.18-0.21,10.23,0.49,14.69,0.7c3.56,8.93-3.34,15.56-7.24,23.65c1.32,0.49,4.33,1.4,6.37,2.86
					c1.68,1.12,3.23,3.7,2.51,4.26c-2.17,1.26-5.43,2.58-9.04,0.49c-3.6-2.09-7.08-4.81-13.35-3.42l-1.32-0.35
					c-3.83-4.46-11.77-6.28-18.14-9.14c-2.88-1.26-6.25-2.23-10.82-3.77c-3.28,5.37-6.2,9.84-8.87,14.16l2.17-0.28
					c2.4,1.67,7.21,3.77,6.6,5.09c-0.39,0.95-1,1.61-1.77,2.06c-3.05,1.76-8.6,0.15-12.93,0.32c3.34,6.28,6.8,12.35,10.01,18.56
					c-4.53,2.6-3.62,3.7,4.78,6.84c6.52-2.23,14.23-4.05,19.55-7.12c4.47-2.58,9.17-3.63,14.72-4.46l4.09,0.14
					c-4.59,1.4-8.44,2.51-14.6,4.26c14.8,2.86,3.58,6.7,4.4,10.26c6.03-0.7,11.81-1.26,17.48-2.02l1.81-1.6l-3.61-1.12
					c-3.01,0.07-6.15,0.49-9.75-0.07l3.14-1.26c6.75-0.7,13.62-1.47,20.61-1.74c2.17-0.14,4.57,1.26,7.7,2.23
					c7.31-4.22,16.05-1.25,24.57-0.7l2.28,1.47c3.01,0.91,6.85,2.58,9.62,2.23c19.65-2.58,17.36-3.63,30.43,7.19
					c1.68,1.4,3.36,2.79,5.51,4.47c4.96-3.98,1.85-7.05-1.99-9.28c-3.23-1.88-5.24-4.08-2.59-5.61c1.72-0.95,2.47-1.88,3.12-2.76
					c0.7-0.86,1.44-1.75,2.52-2.37c1.53-0.89,3.75-1.23,7.49-0.21c1.28,0.36,2.31,0.25,3.04-0.17c1.12-0.65,1.49-2.03,0.84-3.6
					c2.17-1.12,4.11-2.09,7.01-3.49c6.14,0.63,14.82-1.19,21.06,2.72c4.56,2.79,9.24,5.65,12.11,9c1.41,1.57-0.04,3.56-2.67,5.07
					c-2.74,1.58-6.76,2.65-10.14,2.18l-5.65-0.91c-2.23,0.47-4.3,1.34-5.98,2.3c-1.27,0.77,0.89,2.86,2.57,3.56
					c3.97,1.6,8.3,2.86,13.46,4.6c-2.9,1.26-4.35,1.81-5.68,2.58c-4.11,2.51-3.76,5.09,1.53,6.63c5.05,1.54,8.41,3.49,8.51,6.91
					l-1.7,2.65c-2.78,2.02-5.8,3.91-9.07,6.07c-4.82,0.14-11.32,0-17.59,0.7c-1.29,0.14-2.81,0.7-4.06,1.42
					c-1.32,0.76-2.34,1.7-2.46,2.48c-0.72,3.48-2.61,6.35-6.27,8.47c-1.99,1.15-4.5,2.08-7.64,2.76l-0.61,1.74
					c0.1,4.4,0.67,8.79,0.41,13.26c-0.72,0.59-1.6,0.8-2.54,1.05c-1.09,0.35-2.29,0.77-3.02,1.19c-2.54,2.02-1.39,11.65,1.49,13.46
					c1.56,0.91,3.73,1.33,5.29,1.81c-1.71,4.6-12.08,6.42-10.67,12.28c0.35,1.46-4.23,3.28-5.69,5.09c-3.4,4.05-5.46,7.88-2.48,12.7
					c2.03,3.42,6,3.21,9.73,3.98c3.25,0.77,6.86,1.19,10.23,1.19c10.72,0.07,14.3,6.35,23.08,8.51c8.3,2.02,14.79,4.81,23.84,0.7
					c4.23-1.88,10.73-2.16,16.02,0.49c5.88,3,12.86,4.53,21.17,4.05l2.05,0.21c8.68,1.91,11.28,2.48,14.09,0.85
					c1.2-0.7,2.45-1.79,4.23-3.36c3.93,7.33,2.84,8.51,21.06,3.14c5.31,2.44,7.11,3.27,8.98,2.19c0.96-0.56,1.94-1.62,3.43-3.24
					c0.8,8.02,11.53,6.28,20.07,7.19c-5.34,6.42,5.75,5.3,9.71,7.46c3.48,1.88,8.66,2.79,13.11,4.12l-2.05,0.91
					c-0.98,2.51-2.08,5.09-3.42,8.37c3.4-0.95,6.77-1.57,8.63-2.65c1.7-0.98,2.15-2.35,0.2-4.68l2.54-2.58
					c-0.34-3.98,0.17-8.16-1.86-11.86c-1.55-2.72-5.75-5.72-10.08-6.84c-10.1-2.65-11.87-8.86-18.84-12.77
					c-3.48-1.88-7.21-3.63-10.93-5.37c-3-1.33-7.09-2.3-8.77-3.98c-5.75-5.86-15.97-8.02-24.5-11.72
					c-5.41-2.44-9.84-5.58-14.28-8.58c-5.16-3.42-5.02-7.12-2.47-11.37c1.34-2.44-0.09-5.65-1.28-8.3c-2.38-6-5.11-12.07-8.69-17.93
					c-0.96-1.53-4.92-2.44-8.05-3.14c-2.5-5.93-11.53-5.02-18.88-5.65c-9.87-0.84-14.67-3.77-14.53-8.58
					c2.22-1.18,4.05-1.91,5.34-2.66c0.46-0.27,0.86-0.54,1.18-0.83c3.87-3.49,5.22-7.19,2.11-11.37c-2.51-3.42-3.21-7.05,2.1-10.12
					c1.21-0.7,0.73-2.23,1.34-3.28c1.58-2.02,3.28-4.12,5.09-6.14c1.82-1.88,4.48-3.56,5.45-5.65c1.83-3.56,2.81-7.33,4.04-11.09
					l0.01-2.09c-9.37-4.88-5.59-12.07-9.53-17.86c-2.15-3.07-3.34-6.28-5.01-9.49l3.02-0.63c3.58,6.56,7.03,13.18,10.61,19.74
					l3.5-0.49c-1.18-4.6-2.36-9.21-3.41-13.88c-2.16-1.81-3.59-3.77-4.9-5.79l-0.24-0.84c-8.53-4.12-3.8-10.05-6.3-15
					c-1.67-3.49-5.5-6.98-10.06-9.63c-4.8-2.65-11.3-4.46-17.31-6.28c-5.53-1.67-9.98-3.42-11.16-7.46
					c-0.35-1.6-3.84-2.79-5.28-4.33c-3.23-3.42-8.15-6.98-8.37-10.6c-0.34-3.35-6.24-7.11-0.06-10.68c1.81-1.04,0.98-3.2,1.83-4.67
					c1.22-2.23,3.28-4.26,4.49-6.49c1.09-1.88,1.59-3.98,2.44-6c6.62,0.07,13.36,1.88,18.79-1.12l0.01-1.53
					c-4.09-0.28-8.31-0.63-12.52-0.84c5.44-3,17.47-1.6,21.19,1.81l4.81,1.53l2.78-1.19c-1.2-0.84-2.4-1.67-3.84-2.65
					c11.7-1.13,24.55-0.79,33.53-5.98c1.01-0.58,1.98-1.24,2.88-1.97c-11.2-0.21-20.51,5.72-33.74,3.07
					c3.5-2.02,6.04-3.49,8.94-5.16c-1.44-0.84-2.88-1.67-4.68-2.72c0.77-0.27,1.38-0.55,1.85-0.82c4.19-2.42-1.87-4.87-3.39-5.25
					c-3.49-0.91-8.79-0.91-12.65-0.07c-4.1,0.98-7.37,3.28-12.65,1.05c3.64-0.72,6.03-1.28,7.38-2.06c2.32-1.34,1.62-3.33-0.94-7.92
					c-6.4,3-12.2,5.65-19.32,9.07c2.43-3.07,4.36-5.16,5.7-7.46l-0.95-2.65l-5.3,0.42c-3.38,1.81-8.44,1.26-10.85,1.95
					c-5.62,1.79-12.39,2.1-17.54,5.07c-1.27,0.73-2.44,1.62-3.47,2.74c-3.51,3.8-8.06,8.01-14.11,11.5
					c-1.06,0.61-2.16,1.2-3.31,1.76c-4.65,2.64-6.63,6.15-9.32,9c-1.45,1.67-2.67,3.49-3.4,4.74c-6.51,0.56-12.41,1.05-18.07,1.53
					l0.11,1.46l4.33,0.42c-3.14,0.84-6.15,1.05-7.96,1.12c-2.06,2.16-3.52,4.26-5.57,6c-4.72,4.12-9.92,7.95-14.52,12.14
					c-1.09,1.05-0.5,2.65-0.62,3c-2.31,3.14-4.25,5.51-6.07,7.95c-2.29-0.35-5.3-0.7-8.66-1.26c-0.81,3.29-2.3,6.09-5.54,7.95
					c-2.18,1.26-5.14,2.09-9.22,2.37l-3.02,1.74c-1.69,0.84-3.62,1.67-5.31,2.51c-1.32-1.19-3-2.3-4.07-3.63l0.37-1.88l-4.34-0.14
					C1009.09,641.12,1006.07,641.61,1003.18,642.03z"/>
			</g>
		</g>
		<g>
			<g>
				<path class="st3" d="M822.77,1123.25c-0.72,0.42-1.35,0.97-2.01,1.53c-0.6,0.54-1.2,1.09-2.01,1.55
					c-0.34,0.19-0.71,0.38-1.13,0.54c4.77,1.51,8.95,3.47,12.75,1.28c0.41-0.24,0.82-0.52,1.22-0.87c0.85-0.77-0.82-3.56-2.51-4.12
					C825.98,1122.12,824.19,1122.43,822.77,1123.25z"/>
			</g>
		</g>
		<g class="st4">
			<g>
				<g>
					<path class="st3" d="M799.11,1013.37c-2.54,1.47-4.47,2.58-5.92,3.42c5.56,1.85,9.84,3.23,13.98,4.54
						c0.75-1.38,2.38-2.89,2.03-4.19c-1.66-5.3-4.28-10.6-5.81-15.98c-0.71-2.37,0.03-4.88,0.4-7.33c0.13-1.19,0.86-2.44,1.34-3.56
						l-2.52-0.77c-1.33,1.33-3.27,2.58-4,3.98c-1.67,3.95-2.76,7.96-4.18,11.91c-0.02,0.05-0.03,0.09-0.05,0.14
						c-0.02,0.05-0.04,0.11-0.06,0.16l0.12-0.21C796.01,1008.21,797.68,1011,799.11,1013.37z"/>
				</g>
			</g>
			<g>
				<g>
					<path class="st3" d="M807.38,1021.4c-0.07-0.02-0.14-0.04-0.2-0.06c-0.01,0.02-0.03,0.04-0.04,0.06L807.38,1021.4z"/>
				</g>
			</g>
			<g>
				<g>
					<path class="st3" d="M807.38,1021.4l-0.24,0c0.04,0.02,0.07,0.03,0.1,0.05C807.28,1021.43,807.33,1021.41,807.38,1021.4z"/>
				</g>
			</g>
			<g>
				<g>
					<path class="st3" d="M748.39,1016.1c-0.73,1.12-1.22,2.09-2.18,2.93c-3.15,3.07-2.8,4.81,4.19,4.26
						c7.11-0.49,5.65,2.72,6.36,4.53c8.18,1.53,15.64,2.93,21.3,3.98c3.51-2.3,5.56-3.77,7.86-5.23c2.9-1.81-0.06-11.09-3.79-12.14
						l-2.17-0.28C770.18,1018.12,759.22,1016.93,748.39,1016.1z"/>
				</g>
			</g>
			<g>
				<g>
					<path class="st3" d="M801.83,1023.86c-6.63,3.83-11.79,10.13-10.2,14.7c4.23-3.28,7.26-5.72,10.4-8.09
						c1.69-1.4,3.39-2.93,5.44-4.12c0.12-0.06,0.24-0.13,0.35-0.19c2.97-1.72,2.57-3.25-0.58-4.71
						C805.39,1022.03,803.56,1022.86,801.83,1023.86z"/>
				</g>
			</g>
			<g>
				<g>
					<path class="st3" d="M742.98,1035.49c2.52,2.02,2.52,2.02,11.94-3.14l1.92,0.42c-0.85,1.46-1.82,3-2.07,3.42
						c3.84,2.79,7.32,5.37,12.24,8.79c-0.11-2.72-0.1-4.4-0.21-6.14c1.44,0.42,3.25,0.91,6.01,1.67c-0.34-4.26-0.56-7.88-9.47-8.16
						l-5.65-1.19c-2.17-0.14-4.7-0.07-6.63,0.49C748.06,1032.7,745.64,1034.23,742.98,1035.49z"/>
				</g>
			</g>
			<g>
				<g>
					<path class="st3" d="M733.47,1077.14l1.07,2.72c6.02,0.98,5.28,3.77,5.99,6.28c0.35,1.47,0.95,3.21,2.63,4.05
						c7.57,3.84,4.77,9.21,7.15,13.81c2.03,3.7,1.4,8.37,9.21,10.81c3.73,1.05,6.49,3.21,9.97,4.67c1.68,0.7,3.73,1.19,5.77,1.4
						c7.7,0.98,15.4,2.23,22.99,2.3c5.66-0.07,11.81-1.26,16.76-3c0.62-0.21,1.19-0.47,1.72-0.78c2.44-1.41,3.97-3.68,5.66-5.57
						c2.3-2.44,1.95-4.6-2.98-6.07c-0.72-0.28,0.13-2.44,0.51-4.19c-0.36-0.07-1.8-0.49-4.09-1.12c3.62-0.28,6.27-0.56,7.95-0.7
						c-0.1-3-1.65-5.86-0.08-8.02c0.36-0.49,0.94-0.92,1.64-1.33c2.11-1.22,5.39-2.17,7.66-3.48c4.71-2.58,9.66-4.33,16.76-3.84
						c1.05,0.1,2.23-0.39,3.39-1.06c0.44-0.26,0.88-0.54,1.31-0.82c0.85-0.49,1.93-1.12,2.78-1.46c2.05-0.91,4.7-1.33,6.52-2.37
						c0.24-0.12,0.48-0.25,0.72-0.39c1.65-0.95,3.12-2.23,3.76-3.45l-2.03-2.72c-10.23-0.63-11.29-6-15.48-9.7
						c-1.08-1.05-1.79-2.16-2.99-3l-4.09-0.14c-1.79-3.42-3.57-6.84-12.75-3.49c-5.07,1.81-11.46,2.72-17.24,3.42
						c-4.22,0.49-8.55-0.07-12.77-0.14l-3.86,0.14c-2.77,0.07-5.66,0.49-8.19,0.14c-4.35-0.67-7.34-0.51-8.99,0.45
						c-1.46,0.84-1.88,2.31-1.27,4.37c-5.18-0.21-9.87-0.42-14.45-0.7l-0.73,1.26c-0.48-0.84-1.19-1.67-2.27-3
						c-3.51,3.42-6.54,6.42-10.05,9.84c3.61,0.56,6.98,1.12,11.19,1.74c-0.85,2.16-1.59,4.26-2.56,6.35
						c-0.63,1.52-1.42,2.56-2.44,3.15c-1.92,1.11-4.65,0.58-8.65-1.48c-4.08-2.09-8.41-4.05-12.61-5.93L733.47,1077.14z"/>
				</g>
			</g>
		</g>
		<g>
			<g>
				<path class="st3" d="M719.25,1058.09c-3.39,3.77-7.39,7.33-9.46,11.16c-1.34,2.16,0.45,4.88,1.28,7.32
					c1.06,3.42,2.49,6.77,4.03,10.74c1.5-0.41,2.77-0.91,3.78-1.5c2.41-1.39,3.39-3.28,2.64-5.69c-0.77-2.19-1.25-4.11,0.41-5.06
					c1.14-0.66,3.31-0.86,7.09-0.38l4.83-1.53c2.18-1.81,3.64-3.91,5.57-5.86c-9.38-2.37-9.62-3.35-2.94-11.79
					c-4.82,0.56-9.52,1.05-14.1,1.6L719.25,1058.09z"/>
			</g>
		</g>
		<g>
			<g>
				<path class="st3" d="M951.07,955.54c2.39,2.51,3.7,5.51,7.19,6.84c8.53,3.28,17.79,6.14,27.17,8.65
					c3.49,0.91,8.06,0.91,11.8,0.56c1.6-0.13,2.68-0.4,3.34-0.78c1.43-0.83,0.89-2.2-0.67-3.96c-2.75-3.14-5.99-5.16-12.38-5.37
					l-3-2.02c-3.35-3.91-7.57-3.98-14.8-2.72C965.03,957.63,959.14,956.17,951.07,955.54z"/>
			</g>
		</g>
		<g>
			<g>
				<path class="st3" d="M662.95,811.34l1.56,1.19c1.93-0.42,3.98-0.91,5.91-1.33c6.51-1.26,12.66-2.86,19.29-3.63
					c13.98-1.53,15.9-0.56,18.62,8.44c3.02-2.44,6.65-4.12,6.78-5.86c0.26-2.79-0.81-5.79-7.31-7.05
					c-11.79-2.09-22.16-1.12-31.7,3.56c-1.69,0.84-4.58,0.84-6.75,1.53C666.93,809.04,665.12,810.22,662.95,811.34z"/>
			</g>
		</g>
		<g>
			<g>
				<path class="st3" d="M738.09,748.9c-3.26,2.02-6.41,4.26-9.91,6.7c6.13,0.65,11.52-0.06,14.57-1.83
					c1.21-0.7,2.05-1.56,2.43-2.57c0.49-1.12-0.95-2.51-1.54-3.84C741.83,747.86,739.54,748.06,738.09,748.9z"/>
			</g>
		</g>
		<g>
			<g>
				<path class="st3" d="M750.95,744.36c-1.11,0.64-2.77,2.27-3.34,3.36c-0.73,2.09-0.75,4.33-1.12,6.49
					c-0.25,1.53-0.62,3-1.11,4.53l3.97,0.07c0.2-0.16,0.43-0.31,0.67-0.45c0.48-0.28,1.02-0.53,1.5-0.81c0.4-0.2,0.79-0.4,1.14-0.6
					c1.48-0.85,2.27-1.78-0.15-3.3c-0.12-0.07,0.36-0.49,0.85-1.74c3.73,0.77,7.46,1.53,13.11,2.58c-1.43-3.35-2.62-6-3.92-9.14
					c1.55-0.13,2.95-0.45,3.84-0.96c1.53-0.88,1.59-2.34-1.52-4.41l-5.54,0.7c-0.73,0.42-1.21,0.98-1.58,1.6
					c-0.42,0.54-0.84,1.08-1.5,1.47c-0.88,0.51-2.2,0.75-4.53,0.35C751.54,744.07,751.27,744.17,750.95,744.36z"/>
			</g>
		</g>
		<g>
			<g>
				<path class="st3" d="M609.33,986.51l0.1,3c0.82,4.26,8.52,5.09,12.24,7.95c0.84,0.77,5.41,1.05,6.86,0.35
					c3.5-1.6,6.88-3,11.22-3.98c0.7-0.16,1.33-0.42,1.9-0.76c1.71-0.98,3-2.56,4.62-3.71l-1.56-1.33
					c-7.11,1.05-14.22,1.95-22.54,3.14c-2.04-0.91-5.04-2.51-8.17-3.77L609.33,986.51z"/>
			</g>
		</g>
		<g>
			<g>
				<path class="st3" d="M737.64,1150.53c0.84,1.19,1.79,2.3,2.15,3.49c0.47,1.67,1.43,3.63,0.45,5.16
					c-2.19,3.63,1.42,3.77,5.76,3.77c3.97-0.07,7.95-0.28,14.33-0.49c-3.12-1.95-5.39-4.95-8.52-5.23
					c-5.78-0.56-8.18-2.09-9.37-5.16l-3-2.02L737.64,1150.53z"/>
			</g>
		</g>
		<g>
			<g>
				<path class="st3" d="M761.33,1156.88c-1.46,2.23-2.55,4.12,4.67,4.12c7.47,0,14.81,0.77,22.16,0.98l6.39-1.19
					c1.09-1.05,0.5-3.07-0.7-4.05c-1.08-0.91-4.21-1.6-6.26-1.4c-5.54,0.28-11.09,1.26-16.63,1.67
					C768.07,1157.16,765.06,1156.95,761.33,1156.88z"/>
			</g>
		</g>
		<g>
			<g>
				<path class="st3" d="M596.49,977.93c-0.73,2.23-1.83,4.81-2.45,7.39l2.03,2.3c2.29,0.21,5.42,0.49,7.23-0.28
					c0.51-0.18,0.98-0.4,1.41-0.65c1.6-0.92,2.75-2.26,4.27-3.47C604.3,981.35,599.97,979.4,596.49,977.93z"/>
			</g>
		</g>
		<g>
			<g>
				<path class="st3" d="M707.15,1002.63l-2.42,1.67c3.48,2.58,6.72,5.16,11.51,8.65c2.3-2.3,4.72-3.84,4.85-5.44
					c0.13-0.91-3.48-2.16-5.76-2.93C712.81,1003.82,709.92,1003.26,707.15,1002.63z"/>
			</g>
		</g>
		<g>
			<g>
				<path class="st3" d="M523.49,895.14c-2.16,1.25,0.65,3.96-1.12,5.29l1.56,0.91c2.99-1.52,6.18-2.94,8.95-4.54
					c1.03-0.6,2.01-1.22,2.89-1.88c1.21-0.84-0.95-3.07-1.54-4.67c-1.05,0.6-2.2,1.21-3.28,1.83c-0.54,0.31-1.07,0.63-1.55,0.96
					l-1.09,1.46C525.73,894.42,524.28,894.68,523.49,895.14z"/>
			</g>
		</g>
		<g>
			<g>
				<path class="st3" d="M574.55,960.28c3.11,4.46,6.33,9,9.8,14.09C589.54,971.24,584.88,964.33,574.55,960.28z"/>
			</g>
		</g>
		<g>
			<g>
				<path class="st3" d="M595.37,826.49c-1.59,0.92-0.51,2.18,1.78,4.82c1.98-0.49,3.85-1.15,5.95-1.42
					c1.89-0.32,3.27-0.74,4.18-1.27c1.88-1.09,1.8-2.62,0.19-4.59C600.49,825.1,596.82,825.65,595.37,826.49z"/>
			</g>
		</g>
		<g>
			<g>
				<path class="st3" d="M597.15,831.31c-0.07,0.02-0.13,0.03-0.2,0.05l0.24,0C597.18,831.34,597.16,831.33,597.15,831.31z"/>
			</g>
		</g>
		<g>
			<g>
				<path class="st3" d="M720.88,1024.89c-0.26,0.15-0.46,0.31-0.6,0.48c-1.94,2.37,3.47,4.4,11.54,4.47
					c-0.59-2.3-1.06-4.26-1.89-7.4C726.57,1023.41,722.58,1023.91,720.88,1024.89z"/>
			</g>
		</g>
		<g>
			<g>
				<path class="st3" d="M590.07,840.1c-0.79,0.46-1.38,1.17-1.73,2.22l1.67,2.93c2.74,0.21,4.65-0.2,6.05-1.01
					c1.43-0.83,2.33-2.08,3.01-3.53C595.21,839.47,592.03,838.97,590.07,840.1z"/>
			</g>
		</g>
		<g>
			<g>
				<path class="st3" d="M597.19,831.37c-0.61,2.3-1.23,4.6-1.96,6.83l3.73,0.91c2.66-2.37,5.09-4.74,8.11-7.46
					C602.74,831.57,599.89,831.44,597.19,831.37z"/>
			</g>
		</g>
		<g>
			<g>
				<path class="st3" d="M597.19,831.36l-0.24,0C597.03,831.36,597.11,831.37,597.19,831.36
					C597.19,831.37,597.19,831.36,597.19,831.36z"/>
			</g>
		</g>
		<g>
			<g>
				<path class="st3" d="M825.04,964.33c-1.1,3,0.69,5.3,5.75,6.42c1.08,0.21,3.02-1.05,4.47-1.6c-2.64-1.95-5.16-3.98-7.67-5.86
					L825.04,964.33z"/>
			</g>
		</g>
		<g>
			<g>
				<path class="st3" d="M646.65,988.61c3.36,2.51,5.64,4.26,9.23,6.91c0.5-3.21,0.63-4.81,0.88-7.05
					C653.76,988.54,651.35,988.54,646.65,988.61z"/>
			</g>
		</g>
		<g>
			<g>
				<path class="st3" d="M469.43,954.91c1.05-1.7,2.88-3.2,4.91-4.38c3.15-1.82,6.81-2.85,8.86-2.6c3.62-2.09,7.03-4,10.26-5.87
					c1.62-0.93,3.19-1.86,4.72-2.79c1.81-1.05,3.75-2.16,4.6-3.49c0.73-1.12-0.94-3.21,1.3-4.49c8.67-5.01,13.81-11.31,19.18-17.62
					c1.09-1.33,3.51-2.58,4.72-3.98c1.91-2.27,3.35-3.75,4.73-4.54c2.21-1.28,4.27-0.81,7.82,0.92l24.29-14.02l-2.77-0.21
					c-1.32-1.19-3.72-2.44-3.59-3.63c0.24-1.42,1.1-2.54,2.5-3.35c2.25-1.3,5.91-1.8,10.65-1.46c3-5,7.38-9.34,13.47-12.85
					c4.52-2.61,9.98-4.76,16.51-6.4c-4.58,0.28-8.56,1.47-12.66,1.74c-3.01-0.07-8.66-1.4-8.66-1.81c0.5-2.66-0.02-5.91,3.36-7.87
					c0.79-0.46,1.79-0.84,3.07-1.13c1.42-0.33,2.42-0.69,3.11-1.09c1.48-0.85,1.57-1.9,1.49-3.38c-0.14-1.8,0.45-3.06,1.67-3.76
					c1.66-0.96,4.49-0.91,8.23,0.14l4.33,1.26c1.57-1.11,3.21-2.16,4.92-3.14c7.6-4.39,16.53-7.54,27.07-9.76
					c0.71,1.53,1.07,2.72,1.78,4.26c1.64-0.94,2.95-1.92,4.34-2.72c0.87-0.5,1.77-0.94,2.79-1.26c1.69-0.7,4.34-0.84,6.51-0.56
					c0.72,0.14,0.95,2.09,1.19,3.35c0.35,1.6,0.46,3.21,1.9,4.6c1.46-2.65,2.8-5.51,4.14-8.23c2.29,0.49,4.33,0.98,7.94,1.81
					c-0.83-2.86-1.78-5.23-2.61-7.67l2.05-0.63c3.72,3.14,7.31,6.35,11.15,9.56c-1.31,0.71-2.84,1.32-4.03,2.01
					c-2.1,1.21-3.12,2.64,0.01,5.18c0.29-1.81,0.95-2.91,1.95-3.48c1.62-0.93,4.1-0.48,7.22,0.55c3.73,1.3,7.11,1.63,9.34,0.34
					c0.64-0.37,1.19-0.88,1.62-1.53c-4.45-0.77-9.51-0.63-11.43-2.02c-5.04-4.05-9.23-8.58-13.05-13.05
					c-0.81-0.88-0.71-2.93,0.26-3.49c1.93-0.56,4.7-0.49,6.75-0.14c2.17,0.28,4.08,1.95,5.65,1.88c7.23-0.7,6.73,2.37,7.8,4.81
					c0.71,1.53,1.43,2.93,2.02,4.4l2.05-0.07c-0.91-4.5,1.03-8.17,6.12-11.11c0.83-0.48,1.75-0.94,2.75-1.38l3.84,2.23
					c5.19-2.44,9.54-5.09,14.61-6.77c6.03-2.09,12.79-3.35,19.66-4.95c-1.66-1.77-4.76-3.72-1.85-5.4c0.66-0.38,1.62-0.75,2.97-1.09
					c1.91,2.23,3.71,4.12,4.91,5.51c4.34-1.4,8.08-2.58,12.07-3.77c1.44,1.67,2.39,2.65,3.47,3.7c1.33-0.77,1.09-1.19,1.21-1.53
					c0.73-1.26,1.46-2.65,2.31-3.84l2.41,0.42l1.07,2.86l2.41-0.42c-1.31-2.72-2.74-5.37-4.77-9.35c-1.92,1.87-3.64,3.54-5.62,4.68
					c-2.76,1.59-6.04,2.17-11.15,0.83c0.86-2.02,1.71-4.05,2.68-5.86c2.43-3.77,7.51-7.81,6.57-11.3c-0.59-3,2.07-4.53,4.49-5.93
					c0.47-0.24,0.93-0.47,1.35-0.72c1.2-0.69,2.16-1.46,2.52-2.49l4.09,0.7l7.25-4.19c2.99,3.7,7.2,4.33,13.96,1.53
					c7.12-2.86,13.5-1.95,20.6-0.63c7.34,1.33,14.68,1.67,22.04-0.21c4.22-1.05,8.8-1.47,11.44,1.19c2.64,2.37,4.67,5.09,6.7,7.67
					c-3.3,1.39-7.57,2.51-9.93,3.88c-0.84,0.48-1.44,1-1.66,1.57c-0.98,2.51,2.74,5.79,4.65,9l-3.98,0.63
					c-4.45-0.49-9.02-1.74-13.48-1.67c-6.87,0.21-8.91-1.39-9.97-5.09c-0.83-3-4.31-4.74-10.46-3.56c-3.26,0.63-7.11-0.07-10.6-0.28
					c-2.05-0.21-4.93-1.05-6.43-0.33c-1.52,0.88-2.45,2.43-3.71,3.54c4.94,0.07,8.67,0.56,11.92,0.07
					c7.96-1.26,9.99,1.88,11.78,4.88c1.33,1.99,0.63,3.44-1.33,4.58c-1.2,0.69-2.88,1.27-5.74,2.14c-1.15,0.67-1.97,1.93-3.34,3.05
					c4.83-1.53,7.72-2.93,11.1-3.07c1.32-0.07,3.48,2.16,5.88,3.84c0.73-1.53,1.34-2.86,2.2-4.74c2.64,1.26,4.44,2.58,6.85,3
					c3.49,0.63,7.58,1.19,10.84,0.7c3.86-0.56,6.52-2.79,10.14-3.91c2.81-0.91,4.85-1.69,6.14-2.44c3.5-2.02,1.59-3.74-5.25-6.7
					c-1.92-0.98-2.51-3-3.59-4.47c8.43,0.7,14.8,2.16,15.38,6.7c5.79-0.84,10.61-2.37,14.94-1.95c6.86,0.49,13.01-0.84,19.28-1.26
					c4.58-0.28,8.68-1.95,13.63-3.14c-2.47,10.19,0.31,8.72,9.81,11.86c1.33-0.77,2.78-1.6,3.87-2.51c1.45-0.98,2.3-2.3,3.63-3.35
					c0.75-0.62,1.43-1.12,2.09-1.5c2.76-1.59,4.99-1.13,8.87,1.01c3.48,1.88,7.81,3.28,12.74,5.3c0.48,0.7,2.39,2.93,1.42,4.19
					c-2.54,2.72-6.29,5.16-10.25,7.59c-4.18,2.42-9.04,1.11-14.25-0.12c-6.85-1.74-16.6-3.35-22.03-1.6
					c-4.22,1.33-10.13,3.07-12.91,4.53c-0.02,3.63-0.03,6.28,0.07,9c0.22,3.35,0.2,6.7-0.06,10.05c-1.32-0.07-4.94-0.35-9.27-0.77
					l-0.11-1.05c0.03-4.47,0.29-8.93-0.04-13.46c0-0.84-2.64-1.53-4.08-2.37c-0.74,3.21,1.05,5.93-0.05,8.09
					c-2.56,5.09,1.87,9.77,3.05,14.65c0.35,1.46,0.95,2.79,1.42,4.19c-2.53,0.21-5.18,0.49-7.95,0.7c0.13-1.47,0.38-2.44,0.51-4.74
					c-4.46,1.33-7.6,2.44-10.86,3.35l-3.98,0.35c-6.11-5.79-17.69-3.14-26.34-6.21c0.47,2.23,0.82,3.84,1.29,6.21
					c2.29-0.49,3.98-0.91,5.91-1.33l0.59,1.6c-3.26,1.33-6.88,2.58-12.07,4.47c1.22-2.23,1.7-3.21,2.92-5.44
					c-6.03,1.54-10.13,2.51-13.88,4.26c3.01,0.07,6.14,0.21,9.39,0.28c-0.38,3-0.99,5.58-1.01,8.23c-0.13,1.6,0.34,3.28,0.57,4.95
					c3.02-0.91,6.15-1.6,8.69-2.79l2.06-2.58c0.13-2,1.43-3.38,3.31-4.46c1.93-1.11,4.47-1.91,6.97-2.72
					c1.93-0.7,3.74-1.47,5.43-2.3c2.78-1.33,12.05-0.98,14.21,0.42c2.76,1.74,3.45,7.6,0.91,9.07l-12.57,7.26
					c1.08,0.91,1.44,1.81,2.28,2.02c4.33,1.39,8.65,3.07,13.23,3.63c0.85,0.1,1.89-0.33,2.99-0.96c0.45-0.26,0.9-0.55,1.36-0.85
					c0.85-0.49,1.69-0.98,2.3-1.33c1.93-0.84,4.22-1.19,7.24-2.09c2.31-3.56,5.22-8.02,8.5-12.28l5.79-0.84
					c2.41,0.14,4.33,1.12,7.1,1.88c3.77-5.65,7.41-11.23,11.05-16.81l-2.65,0.42c-2.4-1.4-5.17-2.44-6.84-4.12l1.22-3.07
					c8.93-3.77,17.99-7.46,27.28-11.02c4.23-1.74,8.69-3.21,14.24-5.16c2.29-0.07,6.51-0.7,10.72-0.63
					c2.29,0.07,5.18,0.49,6.86,1.46c3.36,2.09,7.09,3,11.91,2.3c2.65-0.28,5.3-0.98,7.71-0.7c12.4,1.19,23.22,4.26,31.14,10.26
					c2.76,2.16,7.45,3.35,11.41,4.95c2.52,1.33,6.01,2.93,6.6,4.81c1.89,6.56,2.82,13.26,3.98,19.95c0.2,1.68,0.07,3.21-1.48,4.11
					c-1.09,0.63-2.89,0.95-5.78,0.77c-1.51,0-3.52,0.62-5.19,1.6c-0.91,0.72-1.88,1.38-2.91,1.97c-4.03,2.33-8.95,3.72-14.71,4.72
					c-1.65,0.26-3.3,0.69-4.43,1.34c-1.59,0.92-2.14,2.28-0.18,4.24c0.84,1.05,0.1,2.86-0.99,3.91c-4.24,4.53-2.45,7.67,5.61,9.98
					c2.28,0.63,5.64,2.72,5.4,3.84c-1.48,6.56,6.81,10.39,10.75,15.63c3.11,4.47,9.61,4.74,15.86,6.28
					c4.45,1.19,8.17,4.19,11.04,6.84c4.31,3.91,7.42,8.09,11.13,12.21c1.44,1.53,3.96,2.86,5.03,4.6c2.5,4.4,3.92,9,10.05,12.42
					c1.44,0.84,1.67,3.21,0.04,5.21c-1.29,0.75-3.44,1.28-5.02,1.98c-1.81,0.77-3.86,1.4-5.91,2.02c-4.22,1.6-8.45,4.19-12.79,4.19
					c-10.72-0.21-22.16,0.28-31.17-4.26l-3.49-0.35c-5.55,2.09-8.43-0.42-11.31-2.23c-6.48-4.19-14.06-5.37-23.22-4.12
					c-3.5,0.49-8.91-0.28-11.79-1.53c-4.08-2.09-7.32-5.09-10.19-8.02c-7.06-7.46-18.72-11.44-32.46-10.46
					c-15.18,1.12-28.54-1.05-42.25-3.98c-4.69-1.05-7.33-2.16-5.63-4.95c4-0.95,8.79-1.17,11.34-2.65c3.51-2.3,7.5-5.72,7.15-8.44
					c-1.05-5.37-4.52-10.74-7.26-15.98c-1.67-3.49-2.24-8.16-6.33-10.26c-5.64-2.86-4.78-6-5.97-9.21
					c-0.47-1.53-1.31-3.14-2.02-4.67c-1.7,2.93-1.96,5.72-1.13,8.3c2.02,5.37,4.88,10.53,7.14,15.91c1.9,4.74,2.35,9.77,9.68,13.19
					l1.66,3.91l-5.06,0.84c-2.41,0.56-5.66,0.35-7.56,1.45c-6.98,4.03-16.73,3.47-25.12,5.31c-6.27,1.26-12.41,0.35-18.78-0.84
					c-5.17-1.05-7.81-2.58-6.71-5.72c0.98-1.95,1.59-4.12,2.44-6.28l4.82,0.14c0.58-0.3,1.19-0.63,1.78-0.97
					c1.89-1.09,3.65-2.36,4.02-3.63c0.73-1.95-0.82-4.26-1.41-6.42c-0.47-2.23-1.18-4.47-1.76-7.46c-3.75,2.44-5.68,3.56-3.65,6.42
					c2.04,3.08,0.17,6.1-3.31,8.1c-1.4,0.81-3.05,1.45-4.82,1.87c-0.74,2.37-0.27,4.6-2.2,6c-1.15,1.07-2.54,2-4.07,2.88
					c-1.05,0.61-2.17,1.19-3.3,1.79c-1.69,0.98-3.26,1.88-4.95,2.86c-5.2,3.56-5.46,7.33-3.31,10.26c1.74,2.56,1.36,4.07-0.63,5.23
					c-1.43,0.83-3.71,1.47-6.63,2.17c17.43,6.63,15.31,18.56,26.47,26.72c-8.93,2.93-15.17-0.56-22.25-4.95
					c-1.32-0.91-3-2.16-4.68-2.3c-10.84-0.42-21.81,2.58-33.84-0.49c-3.86,0.84-7.6,1.6-10.61,2.23c0.71,2.23,1.42,4.88,2.61,7.53
					c0.59,1.6,1.19,3.35,2.26,4.95c0.96,1.4,2.76,2.58,4.31,3.77c-2.41,0.7-4.83,1.4-7.24,1.95c3.59,3.21,7.31,6.35,10.18,9.56
					c2.27,2.58,2.13,6,5.26,7.81c6.92,4.02,9.43,8.67,10.21,14c-0.45,0.37-0.89,0.68-1.33,0.94c-2.72,1.57-5.31,0.99-8.6-0.92
					c-5.16-2.86-4.3-6.42-5.12-9.98c-0.59-2.86-3.22-5.51-5.25-8.37l-4.69-0.63l-1.58,2.16c0.7,3.35,1.77,6.77,2.95,10.4
					c-6.99,0.14-15.67,2.23-21.3-2.58c-2.88-2.37-4.67-5.65-4.89-8.58c-0.69-5.16-1.41-6.14-10.08-6.14l-4.7-0.35l0.71,1.81
					c-6.03,2.09-11.34,3.91-16.89,5.72l-4.7,0.91c-5.66-0.49-11.07-1.53-16.73-1.88c-12.88-0.49-15.86-6-18.36-11.93
					c-1.19-2.79-0.8-7.6-10.33-4.74l-3.85-1.12l2.18-2.79c1.89-0.48,4.62-0.58,5.88-1.3c0.75-0.43,0.97-1.09,0.17-2.19
					c-0.72-1.12-5.53-1.26-8.54-1.74l-4.82,0.14c1.8,1.6,3,2.72,4.43,3.98c-3.98,1.19-7.24,2.09-12.06,3.35
					c3.37,0.98,4.93,1.47,6.61,1.88l-1.81,0.49c1.91,3.49,3.81,6.98,6.44,11.3c-1.69,0.28-5.19,1.6-7.11,1.19
					c-8.42-2.51-6.34-7.33-6.8-10.95c-4.09-0.84-7.58-2.02-11.31-2.23c-2.17-0.28-4.82,0.28-7.23,0.56
					c-3.86,0.56-7.84,1.74-11.69,1.46c-12.4-0.63-21.53-4.95-28.85-10.33c-2.28-1.74-1.42-5.02-2-7.6c1.82-0.11,2.98-0.41,3.74-0.85
					c2.25-1.3,0.9-3.74,2.44-5.36c-4.81-0.56-9.27-0.77-12.88-1.74c-7.11-2.03-12.09-0.75-16.65,1.89c-0.6,0.35-1.2,0.72-1.8,1.11
					c-1.49,0.93-2.61,2.2-4.17,3.11c-1.47,0.85-3.35,1.38-6.33,1.01l-2.06,1.47c-1.17,2.31-1.88,3.66-2.91,4.26
					c-1.43,0.83-3.49,0.19-8.31-1.39c-4.22-1.51-7.4-1.66-9.42-0.49c-1.26,0.73-2.07,1.96-2.4,3.7l-0.73,2.09
					c-2.53-0.07-4.82-0.14-6.74-0.28l-0.85,1.46c2.77,0.49,5.29,1.39,8.06,1.33c17.83-0.28,32.11,8.16,28.69,17.51
					c-6.14-1.05-12.64-1.47-18.17-3.28c-3.49-1.05-8.78-2.44-7.67-6.42c0.98-3.07-4.08-3.49-7.69-2.93
					c-3.62,0.53-7.95,0.85-10.46,2.3c-1.76,1.01-2.63,2.58-1.75,5.16c-10.7-4.12-17.7-1.33-26.15,2.72c0.02-2.65,0.15-5.23-0.2-7.12
					c-3.97-1.05-7.46-1.95-9.86-2.65c-1.34,3.14-3.17,6.28-4.63,9.49l-1.33,1.6c-0.97,1.12-1.82,2.16-2.67,3.35l-4.44-2.58
					c-2.65,0-5.3,0-10-0.07c5.2-3.56,11.23-6.07,11.85-8.79C459.48,967.75,465.18,961.54,469.43,954.91z M803.5,876.22
					c0.61-0.63,1.45-1.26,2.42-2.37c1.43,1.81,2.27,3.42,3.83,4.6c2.16,1.67,3.46,5.09,8.53,3.28c0.37-0.14,0.73-0.31,1.09-0.52
					c2.33-1.35,4.25-3.95,3.52-5.34c-0.59-1.74-5.4-2.86-7.08-4.12c-2.63-3.91-3.32-9.21-8.13-11.16c-4.36-1.9-10.1-1.33-14.48,1.2
					c-1.42,0.82-2.69,1.84-3.73,3.05l5.41,0.91c2.89,0.28,8.19,0.28,8.67,0.98c1.07,1.74-0.5,3.91-1.12,5.93l-1.22,3.35
					L803.5,876.22 M776.96,883.2c1.1-2.02,5.81-4.46-0.09-6.07c-2.64-0.84-6.26-0.28-9.63-0.42c2.52,2.44,4.79,4.88,7.06,7.32
					L776.96,883.2"/>
			</g>
		</g>
	</g>
	<g>
		<g>
			<g>
				<path class="st0" d="M798.83,892.49c-0.22,0-0.44-0.01-0.66-0.06c-6.88-1.23-11.85-2.82-15.63-5c-1.82-1.05-2.42-3.37-1.39-5.17
					c1.06-1.82,3.37-2.44,5.17-1.39c2.97,1.71,7.28,3.07,13.18,4.12c2.05,0.37,3.42,2.33,3.06,4.38
					C802.22,891.21,800.63,892.49,798.83,892.49z"/>
			</g>
			<g>
				<path class="st0" d="M845.22,896.26c-5.39,0-10.97-0.28-16.61-0.69c-2.08-0.15-3.65-1.95-3.5-4.03c0.13-2.1,2.08-3.97,4.03-3.5
					c10.78,0.77,21.49,0.96,29.39-0.12c1.95-0.19,3.97,1.17,4.25,3.25c0.28,2.07-1.18,3.97-3.25,4.25
					C855.3,895.98,850.62,896.26,845.22,896.26z M887.44,885.7c-1.31,0-2.6-0.69-3.29-1.92c-1.02-1.83-0.38-4.13,1.43-5.15
					c6.44-3.62,12.74-8.25,18.75-13.77c1.46-1.36,2.88-2.73,4.19-4.07c1.48-1.49,3.87-1.52,5.34-0.06c1.49,1.46,1.52,3.85,0.06,5.34
					c-1.4,1.43-2.88,2.86-4.46,4.34c-6.47,5.93-13.24,10.91-20.16,14.81C888.71,885.54,888.07,885.7,887.44,885.7z M926.33,841.55
					c-0.3,0-0.59-0.03-0.89-0.1c-2.04-0.5-3.28-2.54-2.79-4.56c0.84-3.47,1.43-7.1,1.95-10.88c1-6.67,1.99-12.69,4.12-19.01
					c0.69-1.96,2.88-3.01,4.8-2.38c1.98,0.68,3.04,2.82,2.38,4.8c-1.95,5.73-2.88,11.4-3.81,17.67c-0.56,4-1.18,7.87-2.08,11.57
					C929.58,840.39,928.04,841.55,926.33,841.55z M949.14,787.34c-1.03,0-2.07-0.43-2.82-1.25c-1.39-1.56-1.25-3.96,0.3-5.34
					c7.19-6.41,16.03-12.07,26.3-16.83c1.87-0.89,4.13-0.06,5.02,1.83c0.89,1.9,0.06,4.15-1.83,5.02
					c-9.61,4.46-17.83,9.71-24.44,15.62C950.94,787.03,950.04,787.34,949.14,787.34z M1092.85,761.76c-0.3,0-0.61-0.03-0.9-0.1
					c-9.3-2.3-19.12-3.88-29.21-4.71c-2.08-0.16-3.63-1.99-3.45-4.07c0.16-2.08,2.14-3.57,4.07-3.45
					c10.49,0.86,20.72,2.51,30.39,4.89c2.04,0.5,3.26,2.55,2.78,4.58C1096.1,760.6,1094.55,761.76,1092.85,761.76z M1003.03,761.3
					c-1.71,0-3.26-1.17-3.68-2.89c-0.49-2.02,0.75-4.07,2.79-4.56c6.8-1.64,13.88-2.91,21-3.75c3.13-0.38,6.29-0.68,9.45-0.9
					c2.1-0.55,3.88,1.4,4.03,3.5c0.15,2.08-1.42,3.88-3.5,4.03c-3.04,0.22-6.08,0.52-9.08,0.87c-6.85,0.81-13.61,2.02-20.13,3.6
					C1003.62,761.27,1003.33,761.3,1003.03,761.3z"/>
			</g>
			<g>
				<path class="st0" d="M1134.95,779.1c-0.72,0-1.45-0.21-2.08-0.62c-1.46-0.97-2.97-1.89-4.55-2.79
					c-2.57-1.49-5.27-2.91-8.07-4.22c-1.89-0.9-2.7-3.14-1.8-5.03c0.9-1.9,3.14-2.72,5.02-1.8c3.01,1.42,5.89,2.92,8.64,4.5
					c1.7,0.99,3.35,1.99,4.93,3.03c1.74,1.15,2.23,3.5,1.08,5.24C1137.37,778.51,1136.17,779.1,1134.95,779.1z"/>
			</g>
		</g>
	</g>
	<g>
		<g>
			<path class="st5" d="M1201,546.17c0,37.46-26.53,83.1-58.91,102.22c-16.39,9.37-31.21,10.14-42.14,3.9l-27.31-16
				c10.93,6.24,25.75,5.46,41.75-3.9c32.77-19.12,58.91-64.77,58.91-102.22c0-18.73-6.63-31.6-17.17-37.85l27.7,16
				C1194.37,514.57,1200.62,527.45,1201,546.17z"/>
		</g>
		<g>
			<path class="st6" d="M1051.58,632.4c0,57.35,86.22,142.8,90.91,147.09l-27.7-16c-4.29-4.29-90.91-89.74-90.91-147.09
				c0-56.96,40.58-127.19,90.13-155.68c24.97-14.82,47.99-16,64.38-6.24l27.31,16c-16.39-9.75-39.02-8.58-63.98,5.85
				C1091.76,505.21,1051.18,575.43,1051.58,632.4z"/>
		</g>
		<g>
			<path class="st7" d="M1141.52,476.52c49.82-28.76,90.56-5.55,90.72,51.41c0.16,57.25-85.36,241.99-89.86,251.71
				c-4.54-4.5-90.83-90.05-90.99-147.3C1051.23,575.38,1091.95,505.14,1141.52,476.52z M1142.01,648.26
				c32.63-18.84,58.95-64.71,58.84-102.21c-0.11-37.21-26.6-52.31-59.23-33.47c-32.38,18.7-58.95,64.43-58.85,101.64
				C1082.88,651.72,1109.62,666.96,1142.01,648.26"/>
		</g>
	</g>
	<g>
		<g>
			<polygon class="st8" points="932.78,836.62 932.14,1038.63 749.24,1144.92 749.88,942.91 			"/>
		</g>
		<g>
			<polygon class="st9" points="911.54,875.21 911.54,907.14 911.36,910.41 911.36,941.62 770.37,1023.63 770.37,1011.84 
				770.55,1003.49 770.55,976.64 770.73,968.11 770.73,957.22 			"/>
		</g>
		<g>
			<polygon class="st10" points="749.88,942.91 749.24,1144.92 565.14,1038.63 565.78,836.62 			"/>
		</g>
		<g>
			<polygon class="st11" points="932.82,836.75 749.88,943.04 669.46,896.48 646.18,883.31 645.71,883.07 565.76,836.75 
				748.7,730.46 829.12,776.79 829.36,777.02 852.4,790.19 			"/>
		</g>
		<g>
			<polygon class="st8" points="852.4,790.19 669.46,896.48 646.18,883.31 645.71,883.07 829.12,776.79 829.36,777.02 			"/>
		</g>
		<g>
			<polygon class="st8" points="669.46,896.48 669.24,972.9 645.71,959.46 645.93,883.04 			"/>
		</g>
		<g>
			<g>
				<g>
					<polygon class="st12" points="790.61,1055.83 796.95,1067.89 793.02,1070.15 784.36,1075.12 					"/>
				</g>
			</g>
			<g>
				<g>
					<polygon class="st12" points="793.02,1070.15 793.09,1094 788.35,1096.74 788.29,1072.89 					"/>
				</g>
			</g>
			<g>
				<g>
					<polygon class="st12" points="816.54,1082.59 816.56,1087.7 783.87,1106.57 783.85,1101.46 					"/>
				</g>
			</g>
			<g>
				<g>
					<path class="st12" d="M851.29,1020.8l0.05,16.99c0.02,5.37-3.09,11.6-7.2,14.76l0.04,15.32c2.89-1.33,5.06-1.21,5.07,0.4
						l-12.75,7.36c0-1.6,2.16-4.24,5.05-6.24l-0.04-15.32c-1.88,0.75-3.51,0.57-4.78-0.23c-1.5-1.11-2.48-3.2-2.49-6.18l-0.05-16.99
						L851.29,1020.8z"/>
				</g>
			</g>
			<g>
				<g>
					<polygon class="st12" points="811.96,1059.22 812.03,1083.07 807.29,1085.8 807.23,1061.95 					"/>
				</g>
			</g>
			<g>
				<g>
					<polygon class="st12" points="809.58,1044.88 815.89,1056.95 811.96,1059.22 803.33,1064.16 					"/>
				</g>
			</g>
		</g>
		<g>
			<g>
				<g>
					<polygon class="st13" points="911.54,907.14 911.36,910.41 770.55,991.7 770.55,988.61 					"/>
				</g>
			</g>
			<g>
				<g>
					<polygon class="st13" points="911.36,918.76 911.36,922.2 770.55,1003.49 770.55,1000.23 					"/>
				</g>
			</g>
			<g>
				<g>
					<polygon class="st13" points="911.36,930.55 911.36,934 770.37,1015.29 770.37,1011.84 					"/>
				</g>
			</g>
			<g>
				<g>
					<polygon class="st13" points="911.54,895.35 911.54,898.62 770.55,980.09 770.55,976.64 					"/>
				</g>
			</g>
			<g>
				<g>
					<polygon class="st13" points="911.54,883.55 911.54,886.82 770.73,968.11 770.73,964.84 					"/>
				</g>
			</g>
		</g>
	</g>
	<g>
		<g>
			<path class="st14" d="M833.94,180.26c-1.93-1.16-4.64-0.77-7.73,0.77L434.08,407.43c-5.8,3.48-10.43,11.21-10.43,18.16
				l0.77,267.34c0,3.48,1.16,6.18,3.09,7.34l-40.57-23.95c-1.93-1.16-3.09-3.48-3.09-6.95l-0.77-267.73
				c0-6.57,4.64-14.68,10.05-17.77l392.13-226.39c3.09-1.93,5.8-1.93,7.73-0.77L833.94,180.26z"/>
		</g>
	</g>
	<g>
		<g>
			<path class="st15" d="M826.28,181.11c5.92-3.42,10.62-1.02,10.64,5.78l0.76,267.56c0.02,7.09-4.65,15.18-10.57,18.59
				l-52.29,30.19l0.32,113.37l-104.17-53.42L434.92,699.48c-5.67,3.27-10.37,0.6-10.39-6.49l-0.76-267.56
				c-0.02-6.8,4.65-14.61,10.33-17.88L826.28,181.11z"/>
		</g>
	</g>
	<g>
		<path class="st2" d="M601.96,536.64c-7.63,0-14.73-1.8-21.02-5.42c-15.01-8.65-23.34-26.53-23.4-50.32
			c-0.15-46.94,32.98-104.32,73.82-127.89l0,0c20.78-12.02,40.58-13.83,55.75-5.08c15,8.64,23.29,26.35,23.35,49.88
			c0.13,47.12-33.09,104.7-74.09,128.36C624.34,533.12,612.62,536.64,601.96,536.64z M663.8,357.48c-8.51,0-18.05,2.92-28.02,8.67
			l0,0c-35.77,20.64-64.77,70.86-64.65,111.94c0.06,19.06,6.31,33.13,17.6,39.63c11.32,6.5,26.68,4.89,43.25-4.7
			c35.9-20.72,65-71.13,64.89-112.38c-0.06-18.81-6.28-32.74-17.56-39.23C674.74,358.78,669.5,357.48,663.8,357.48z"/>
	</g>
	<g>
		<path class="st2" d="M667.23,420.22c0.28,21.42-14.75,47.02-33.11,57.6c-18.36,10.57-33.39,2.22-33.39-19.2
			c0-20.87,14.75-46.75,33.11-57.32C652.21,390.72,667.23,399.07,667.23,420.22z"/>
	</g>
	<g>
		
			<rect x="631.02" y="319.13" transform="matrix(1 -2.831569e-03 2.831569e-03 1 -0.9549 1.8069)" class="st2" width="13.22" height="38.04"/>
	</g>
	<g>
		
			<rect x="631.61" y="522.28" transform="matrix(1 -2.855828e-03 2.855828e-03 1 -1.5428 1.8248)" class="st2" width="13.22" height="37.71"/>
	</g>
	<g>
		<polygon class="st2" points="709.19,410.73 702.56,399.27 735.64,380.17 742.28,391.63 		"/>
	</g>
	<g>
		<polygon class="st2" points="532.37,503.47 525.74,492.02 558.84,472.91 565.47,484.37 		"/>
	</g>
	<g>
		<g>
			<g>
				<polygon class="st8" points="1725.44,1005.25 1725.01,1152.38 1667.07,1185.98 1649.83,1196.11 1591.89,1229.71 
					1592.32,1082.58 1649.62,1049.19 1666.85,1039.28 				"/>
			</g>
		</g>
		<g>
			<g>
				<polygon class="st10" points="1592.49,1082.67 1591.95,1229.61 1458.01,1152.22 1458.45,1005.41 1458.45,1005.19 
					1458.67,1005.19 1516.78,1038.87 1529.98,1046.57 1533.95,1048.77 				"/>
			</g>
		</g>
		<g>
			<g>
				<polygon class="st11" points="1725.53,1005.38 1592.42,1082.72 1533.9,1048.84 1516.96,1039.26 1516.62,1039.09 
					1458.45,1005.38 1591.56,928.05 				"/>
			</g>
		</g>
		<g>
			<g>
				<polygon class="st8" points="1516.56,971.51 1649.67,1048.84 1666.61,1039.26 1666.95,1039.09 1533.49,961.75 1533.32,961.92 
									"/>
			</g>
		</g>
		<g>
			<g>
				<polygon class="st16" points="1667.07,1185.98 1649.83,1196.11 1649.62,1049.19 1649.62,1048.76 1653.49,1046.61 
					1666.85,1039.07 1666.85,1039.28 				"/>
			</g>
		</g>
		<g>
			<g>
				<g>
					<g>
						<polygon class="st12" points="1573.56,1167.19 1569.2,1175.49 1571.9,1177.05 1577.86,1180.47 						"/>
					</g>
				</g>
			</g>
			<g>
				<g>
					<g>
						<polygon class="st12" points="1571.9,1177.05 1571.86,1193.47 1575.12,1195.36 1575.16,1178.94 						"/>
					</g>
				</g>
			</g>
			<g>
				<g>
					<g>
						<polygon class="st12" points="1555.71,1185.62 1555.7,1189.13 1578.21,1202.13 1578.22,1198.61 						"/>
					</g>
				</g>
			</g>
			<g>
				<g>
					<g>
						<path class="st12" d="M1514.58,1134.12l-0.03,11.7c-0.01,3.69,2.12,7.98,4.96,10.16l-0.03,10.54
							c-1.99-0.92-3.49-0.83-3.49,0.27l8.77,5.07c0-1.1-1.49-2.92-3.48-4.29l0.03-10.54c1.3,0.52,2.41,0.39,3.29-0.16
							c1.03-0.77,1.71-2.2,1.71-4.25l0.03-11.7L1514.58,1134.12z"/>
					</g>
				</g>
			</g>
			<g>
				<g>
					<g>
						<polygon class="st12" points="1558.86,1169.53 1558.82,1185.95 1562.08,1187.83 1562.12,1171.41 						"/>
					</g>
				</g>
			</g>
			<g>
				<g>
					<g>
						<polygon class="st12" points="1560.5,1159.65 1556.16,1167.97 1558.86,1169.53 1564.8,1172.93 						"/>
					</g>
				</g>
			</g>
		</g>
		<g>
			<g>
				<g>
					<g>
						<path class="st12" d="M1537.63,1183.35c-0.4,0-0.83-0.13-1.25-0.37l-30.52-17.62c-1.3-0.76-2.37-2.64-2.37-4.18l0.11-35.13
							c0-0.88,0.35-1.59,0.95-1.94c0.6-0.34,1.35-0.28,2.08,0.14l30.52,17.62c1.35,0.79,2.44,2.67,2.42,4.21l-0.09,35.13
							c0,0.87-0.36,1.57-0.97,1.9C1538.24,1183.28,1537.94,1183.35,1537.63,1183.35z M1505.4,1125.18c-0.08,0-0.16,0.02-0.22,0.05
							c-0.19,0.12-0.3,0.42-0.3,0.82l-0.11,35.13c0,1.09,0.81,2.52,1.74,3.06l30.52,17.62c0.35,0.2,0.64,0.22,0.84,0.14
							c0.19-0.12,0.3-0.4,0.32-0.79l0.09-35.13c0-1.07-0.84-2.55-1.79-3.09l-30.52-17.62
							C1505.76,1125.25,1505.56,1125.18,1505.4,1125.18z"/>
					</g>
				</g>
			</g>
			<g>
				<g>
					<g>
						<path class="st12" d="M1583.06,1209.57c-0.4,0-0.83-0.12-1.24-0.36l-30.52-17.62c-1.34-0.77-2.38-2.61-2.38-4.18l0.11-35.14
							c0-0.87,0.34-1.58,0.95-1.92c0.61-0.36,1.35-0.31,2.08,0.13l30.52,17.63c1.35,0.77,2.44,2.66,2.42,4.21l-0.09,35.13
							c0,0.85-0.34,1.55-0.94,1.89C1583.69,1209.5,1583.38,1209.57,1583.06,1209.57z M1550.84,1151.42c-0.08,0-0.17,0.02-0.23,0.05
							c-0.19,0.12-0.31,0.41-0.31,0.81l-0.11,35.14c0,1.09,0.82,2.52,1.75,3.06l30.51,17.62c0.34,0.19,0.65,0.22,0.85,0.13
							c0.19-0.12,0.31-0.4,0.31-0.78l0.09-35.13c0-1.08-0.84-2.55-1.79-3.09l-30.52-17.63
							C1551.19,1151.48,1551,1151.42,1550.84,1151.42z"/>
					</g>
				</g>
			</g>
		</g>
	</g>
	<g>
		<g>
			<g>
				<polygon class="st8" points="1543.83,1097.94 1543.23,1302.64 1462.61,1349.4 1438.63,1363.48 1358.01,1410.24 1358.61,1205.54 
					1438.33,1159.08 1462.31,1145.3 				"/>
			</g>
		</g>
		<g>
			<g>
				<polygon class="st10" points="1358.85,1205.66 1358.1,1410.1 1171.75,1302.43 1172.36,1098.17 1172.36,1097.87 1172.67,1097.87 
					1253.51,1144.72 1271.89,1155.44 1277.4,1158.5 				"/>
			</g>
		</g>
		<g>
			<g>
				<polygon class="st11" points="1543.95,1098.13 1358.75,1205.73 1277.34,1158.59 1253.77,1145.26 1253.29,1145.03 
					1172.36,1098.13 1357.56,990.53 				"/>
			</g>
		</g>
		<g>
			<g>
				<polygon class="st8" points="1253.2,1051 1438.4,1158.59 1461.97,1145.26 1462.45,1145.03 1276.77,1037.43 1276.53,1037.67 				
					"/>
			</g>
		</g>
		<g>
			<g>
				<polygon class="st16" points="1462.61,1349.4 1438.63,1363.48 1438.33,1159.08 1438.33,1158.48 1443.73,1155.49 1462.31,1145 
					1462.31,1145.3 				"/>
			</g>
		</g>
		<g>
			<g>
				<g>
					<g>
						<polygon class="st12" points="1332.52,1323.26 1326.45,1334.81 1330.21,1336.98 1338.5,1341.73 						"/>
					</g>
				</g>
			</g>
			<g>
				<g>
					<g>
						<polygon class="st12" points="1330.21,1336.98 1330.14,1359.82 1334.68,1362.44 1334.74,1339.6 						"/>
					</g>
				</g>
			</g>
			<g>
				<g>
					<g>
						<polygon class="st12" points="1307.68,1348.89 1307.66,1353.78 1338.98,1371.86 1338.99,1366.97 						"/>
					</g>
				</g>
			</g>
			<g>
				<g>
					<g>
						<path class="st12" d="M1250.46,1277.25l-0.05,16.28c-0.01,5.14,2.96,11.11,6.9,14.14l-0.04,14.67
							c-2.77-1.27-4.85-1.16-4.86,0.38l12.21,7.05c0-1.53-2.07-4.06-4.84-5.97l0.04-14.67c1.8,0.72,3.36,0.54,4.57-0.22
							c1.43-1.07,2.37-3.06,2.38-5.92l0.05-16.28L1250.46,1277.25z"/>
					</g>
				</g>
			</g>
			<g>
				<g>
					<g>
						<polygon class="st12" points="1312.07,1326.5 1312,1349.35 1316.54,1351.97 1316.6,1329.12 						"/>
					</g>
				</g>
			</g>
			<g>
				<g>
					<g>
						<polygon class="st12" points="1314.35,1312.77 1308.31,1324.33 1312.07,1326.5 1320.33,1331.24 						"/>
					</g>
				</g>
			</g>
		</g>
		<g>
			<g>
				<g>
					<g>
						<path class="st12" d="M1282.52,1345.74c-0.56,0-1.16-0.18-1.74-0.51l-42.47-24.51c-1.81-1.05-3.29-3.67-3.29-5.81l0.15-48.88
							c0-1.23,0.48-2.21,1.32-2.69c0.83-0.47,1.87-0.4,2.9,0.19l42.47,24.51c1.87,1.1,3.4,3.72,3.37,5.85l-0.13,48.88
							c0,1.21-0.5,2.18-1.35,2.65C1283.37,1345.63,1282.96,1345.74,1282.52,1345.74z M1237.68,1264.81c-0.12,0-0.22,0.03-0.31,0.07
							c-0.26,0.16-0.42,0.59-0.42,1.14l-0.15,48.88c0,1.52,1.13,3.51,2.41,4.26l42.47,24.51c0.48,0.28,0.89,0.31,1.17,0.19
							c0.26-0.16,0.42-0.56,0.44-1.1l0.13-48.88c0-1.49-1.17-3.54-2.49-4.3l-42.47-24.51
							C1238.18,1264.9,1237.9,1264.81,1237.68,1264.81z"/>
					</g>
				</g>
			</g>
			<g>
				<g>
					<g>
						<path class="st12" d="M1345.73,1382.22c-0.56,0-1.16-0.16-1.73-0.5l-42.47-24.51c-1.86-1.07-3.31-3.63-3.31-5.81l0.15-48.89
							c0-1.21,0.47-2.2,1.32-2.68c0.85-0.5,1.87-0.42,2.9,0.18l42.47,24.53c1.87,1.07,3.4,3.7,3.37,5.85l-0.13,48.88
							c0,1.19-0.47,2.15-1.3,2.63C1346.6,1382.12,1346.18,1382.22,1345.73,1382.22z M1300.9,1301.31c-0.12,0-0.23,0.03-0.32,0.07
							c-0.26,0.16-0.42,0.57-0.42,1.13l-0.15,48.89c0,1.52,1.14,3.51,2.43,4.26l42.45,24.51c0.47,0.26,0.91,0.31,1.19,0.18
							c0.26-0.16,0.42-0.56,0.42-1.08l0.13-48.88c0-1.51-1.17-3.54-2.49-4.3l-42.47-24.53
							C1301.39,1301.4,1301.12,1301.31,1300.9,1301.31z"/>
					</g>
				</g>
			</g>
		</g>
	</g>
	<g>
		<g>
			<g>
				<polygon class="st8" points="1251.58,1272.8 1251.15,1418.54 1193.75,1451.83 1176.68,1461.86 1119.27,1495.15 1119.7,1349.4 
					1176.46,1316.33 1193.53,1306.51 				"/>
			</g>
		</g>
		<g>
			<g>
				<polygon class="st10" points="1119.88,1349.49 1119.34,1495.06 986.66,1418.39 987.09,1272.96 987.09,1272.74 987.31,1272.74 
					1044.87,1306.1 1057.95,1313.73 1061.88,1315.91 				"/>
			</g>
		</g>
		<g>
			<g>
				<polygon class="st11" points="1251.66,1272.93 1119.8,1349.54 1061.83,1315.98 1045.05,1306.49 1044.72,1306.32 987.09,1272.93 
					1118.95,1196.32 				"/>
			</g>
		</g>
		<g>
			<g>
				<polygon class="st8" points="1044.65,1239.37 1176.52,1315.98 1193.3,1306.49 1193.63,1306.32 1061.43,1229.71 1061.26,1229.88 
									"/>
			</g>
		</g>
		<g>
			<g>
				<polygon class="st16" points="1193.75,1451.83 1176.68,1461.86 1176.46,1316.33 1176.46,1315.9 1180.3,1313.77 1193.53,1306.3 
					1193.53,1306.51 				"/>
			</g>
		</g>
		<g>
			<g>
				<g>
					<g>
						<polygon class="st12" points="1101.12,1433.22 1096.8,1441.44 1099.48,1442.99 1105.38,1446.37 						"/>
					</g>
				</g>
			</g>
			<g>
				<g>
					<g>
						<polygon class="st12" points="1099.48,1442.99 1099.43,1459.26 1102.66,1461.12 1102.71,1444.85 						"/>
					</g>
				</g>
			</g>
			<g>
				<g>
					<g>
						<polygon class="st12" points="1083.44,1451.47 1083.43,1454.95 1105.72,1467.83 1105.73,1464.34 						"/>
					</g>
				</g>
			</g>
			<g>
				<g>
					<g>
						<path class="st12" d="M1042.7,1400.46l-0.03,11.59c-0.01,3.66,2.1,7.91,4.91,10.07l-0.03,10.45
							c-1.97-0.91-3.45-0.82-3.46,0.27l8.69,5.02c0-1.09-1.48-2.89-3.44-4.25l0.03-10.45c1.28,0.51,2.39,0.39,3.26-0.16
							c1.02-0.76,1.69-2.18,1.7-4.21l0.03-11.59L1042.7,1400.46z"/>
					</g>
				</g>
			</g>
			<g>
				<g>
					<g>
						<polygon class="st12" points="1086.56,1435.53 1086.52,1451.8 1089.75,1453.66 1089.79,1437.4 						"/>
					</g>
				</g>
			</g>
			<g>
				<g>
					<g>
						<polygon class="st12" points="1088.19,1425.75 1083.89,1433.99 1086.56,1435.53 1092.45,1438.9 						"/>
					</g>
				</g>
			</g>
		</g>
		<g>
			<g>
				<g>
					<g>
						<path class="st12" d="M1065.53,1449.23c-0.4,0-0.82-0.13-1.24-0.36l-30.24-17.45c-1.29-0.75-2.34-2.62-2.34-4.14l0.1-34.8
							c0-0.88,0.34-1.57,0.94-1.92c0.59-0.33,1.33-0.28,2.06,0.14l30.24,17.45c1.33,0.78,2.42,2.65,2.4,4.17l-0.09,34.8
							c0,0.86-0.35,1.55-0.96,1.89C1066.13,1449.15,1065.84,1449.23,1065.53,1449.23z M1033.6,1391.61c-0.08,0-0.16,0.02-0.22,0.05
							c-0.19,0.11-0.3,0.42-0.3,0.81l-0.1,34.8c0,1.08,0.8,2.5,1.72,3.03l30.24,17.45c0.34,0.2,0.64,0.22,0.83,0.14
							c0.19-0.11,0.3-0.4,0.31-0.78l0.09-34.8c0-1.06-0.83-2.52-1.77-3.06l-30.24-17.45
							C1033.96,1391.67,1033.76,1391.61,1033.6,1391.61z"/>
					</g>
				</g>
			</g>
			<g>
				<g>
					<g>
						<path class="st12" d="M1110.53,1475.2c-0.4,0-0.82-0.11-1.23-0.35l-30.24-17.45c-1.32-0.76-2.35-2.58-2.35-4.14l0.1-34.81
							c0-0.86,0.33-1.56,0.94-1.91c0.6-0.35,1.33-0.3,2.06,0.13l30.24,17.46c1.33,0.76,2.42,2.64,2.4,4.17l-0.09,34.8
							c0,0.84-0.33,1.53-0.93,1.88C1111.15,1475.13,1110.85,1475.2,1110.53,1475.2z M1078.61,1417.59c-0.08,0-0.17,0.02-0.23,0.05
							c-0.19,0.11-0.3,0.41-0.3,0.8l-0.1,34.81c0,1.08,0.81,2.5,1.73,3.03l30.23,17.45c0.33,0.19,0.65,0.22,0.84,0.13
							c0.19-0.11,0.3-0.4,0.3-0.77l0.09-34.8c0-1.07-0.83-2.52-1.77-3.06l-30.24-17.46
							C1078.96,1417.66,1078.77,1417.59,1078.61,1417.59z"/>
					</g>
				</g>
			</g>
		</g>
	</g>
</g>
</svg>
