<?xml version="1.0" encoding="utf-8"?>
<!-- Generator: Adobe Illustrator 24.0.2, SVG Export Plug-In . SVG Version: 6.00 Build 0)  -->
<svg version="1.1" id="Layer_1" xmlns="http://www.w3.org/2000/svg" xmlns:xlink="http://www.w3.org/1999/xlink" x="0px" y="0px"
	 width="600px" height="600px" viewBox="0 0 600 600" style="enable-background:new 0 0 600 600;" xml:space="preserve">
<style type="text/css">
	.st0{fill:none;}
	.st1{fill:#FFFFFF;}
</style>
<rect x="59.58" y="59.68" class="st0" width="480.41" height="480.41"/>
<path class="st1" d="M179.95,191.3c-2.88,0-5.76-1.1-7.96-3.3l-26.54-26.54c-4.4-4.39-4.4-11.53,0-15.92c4.4-4.4,11.52-4.4,15.92,0
	l26.54,26.54c4.4,4.39,4.4,11.53,0,15.92C185.71,190.2,182.83,191.3,179.95,191.3z M224.72,160.48v-31.84
	c0-6.22-5.04-11.26-11.26-11.26s-11.26,5.04-11.26,11.26v31.84c0,6.22,5.04,11.26,11.26,11.26S224.72,166.7,224.72,160.48z
	 M171.64,213.56c0-6.22-5.04-11.26-11.26-11.26h-31.84c-6.22,0-11.26,5.04-11.26,11.26c0,6.22,5.04,11.26,11.26,11.26h31.84
	C166.6,224.82,171.64,219.78,171.64,213.56z M454.12,454.21c4.4-4.4,4.4-11.52,0-15.92l-26.54-26.54c-4.4-4.4-11.53-4.4-15.92,0
	c-4.4,4.4-4.4,11.52,0,15.92l26.54,26.54c2.2,2.2,5.08,3.3,7.96,3.3C449.04,457.51,451.92,456.41,454.12,454.21z M482.29,386.2
	c0-6.22-5.04-11.26-11.26-11.26h-31.84c-6.22,0-11.26,5.04-11.26,11.26c0,6.22,5.04,11.26,11.26,11.26h31.84
	C477.25,397.46,482.29,392.42,482.29,386.2z M397.37,471.12v-31.84c0-6.22-5.04-11.26-11.26-11.26s-11.26,5.04-11.26,11.26v31.84
	c0,6.22,5.04,11.26,11.26,11.26S397.37,477.34,397.37,471.12z M191.99,236.92l-29.82,29.82c-3.12,3.12-4.62,7.42-4.11,11.81
	c0.52,4.48,3.03,8.43,6.89,10.83c4.19,2.6,8.67,4.84,13.01,7c7.88,3.94,15.33,7.65,20.97,13.3c5.7,5.7,7.87,12.33,6.44,19.69
	c-1.22,6.28-5.01,12.85-10.68,18.52c-7.06,7.06-15.39,11.11-22.85,11.11c-5.64,0-10.81-2.31-15.37-6.87
	c-5.59-5.59-9.26-12.94-13.14-20.72c-2.32-4.64-4.71-9.44-7.59-13.93c-2.56-4.01-6.99-6.4-11.85-6.4c-3.91,0-7.59,1.52-10.35,4.28
	L82.3,346.61c-9.1,9.1-9.1,23.98,0,33.08l137.68,137.68c9.1,9.1,23.98,9.1,33.08,0l31.22-31.22c3.12-3.12,4.62-7.43,4.12-11.81
	c-0.52-4.48-3.03-8.43-6.89-10.83c-4.19-2.6-8.67-4.84-13.01-7c-7.88-3.94-15.33-7.65-20.97-13.3c-5.7-5.7-7.87-12.33-6.44-19.69
	c1.22-6.28,5.01-12.86,10.68-18.53c7.06-7.06,15.38-11.11,22.84-11.11c5.64,0,10.82,2.31,15.37,6.86
	c5.59,5.59,9.26,12.94,13.14,20.72c2.32,4.64,4.71,9.44,7.59,13.93c2.56,4.01,6.99,6.4,11.85,6.4l0,0c3.91,0,7.59-1.52,10.35-4.28
	l29.83-29.83c9.07-9.07,9.07-23.77,0-32.83l-44.64-44.64c-4.94-4.94-3.83-13.11,2.1-16.8c11.43-7.11,21.51-7.69,30.9-17.08
	c14.52-14.52,6.81-32.47-4.25-43.52c-11.06-11.06-29-18.77-43.52-4.25c-9.56,9.56-9.99,19.84-17.48,31.53
	c-3.6,5.63-11.65,6.22-16.38,1.49l-44.65-44.65C215.75,227.86,201.05,227.86,191.99,236.92z M518.01,219.32l-44.51-44.52
	c-4.94-4.94-13.11-3.83-16.8,2.1c-7.1,11.43-7.69,21.51-17.08,30.9c-14.52,14.52-32.47,6.81-43.52-4.25
	c-11.06-11.06-18.77-29.01-4.25-43.52c9.56-9.56,19.83-9.99,31.53-17.48c5.63-3.6,6.22-11.65,1.49-16.38l-44.53-44.53
	c-9.1-9.1-23.98-9.1-33.08,0L235.48,193.43c-9.09,9.09-9.09,23.82,0,32.91l32.13,32.13c4.48,4.48,12.04,3.11,14.66-2.65
	c2.86-6.28,5.92-13.34,10.46-17.88l-0.01,0c8.09-8.09,17.99-12.36,28.64-12.36c12.4,0,25.56,6.05,36.11,16.61
	c20.31,20.31,22.06,46.94,4.25,64.75c-4.54,4.54-11.61,7.6-17.89,10.46c-5.76,2.62-7.13,10.19-2.65,14.66l32.13,32.13
	c9.09,9.09,23.82,9.09,32.91,0L518.01,252.4C527.11,243.3,527.11,228.42,518.01,219.32z"/>
</svg>
