<?xml version="1.0" encoding="utf-8"?>
<!-- Generator: Adobe Illustrator 24.0.2, SVG Export Plug-In . SVG Version: 6.00 Build 0)  -->
<svg version="1.1" id="Layer_1" xmlns="http://www.w3.org/2000/svg" xmlns:xlink="http://www.w3.org/1999/xlink" x="0px" y="0px"
	 width="600px" height="600px" viewBox="0 0 600 600" style="enable-background:new 0 0 600 600;" xml:space="preserve">
<style type="text/css">
	.st0{fill:#16497C;}
	.st1{fill:#FFFFFF;}
</style>
<rect x="28.84" y="235.02" class="st0" width="541.89" height="129.72"/>
<rect x="157.68" y="256.36" class="st1" width="305.86" height="91.39"/>
<path class="st1" d="M45.52,347.74v-91.39h40.9v13.78H59.88v25.05h19.38v13.78H59.88v25h26.53v13.78H45.52z"/>
<path class="st1" d="M109.33,347.74H94.97v-91.39h20.58l13.37,65.53l12.85-65.53h19.79v91.39H147.2v-57.42l-12.41,57.42h-11.53
	l-13.93-57.27V347.74z"/>
<path class="st0" d="M196.6,253.65c9.83,0,17.65,2.25,23.47,6.75c5.43,4.29,8.14,9.75,8.14,16.37v14.09
	c0,6.38-3.08,11.84-9.23,16.37c-6.15,4.54-13.6,6.8-22.33,6.8h-11.64v36.57h-20.17v-96.96H196.6z M208.63,277.04
	c0-2.55-1.04-4.6-3.11-6.14c-2.07-1.54-4.86-2.31-8.37-2.31h-12.14v30.99h12.14c3.22,0,5.94-0.82,8.15-2.47
	c2.22-1.65,3.33-3.62,3.33-5.93V277.04z"/>
<path class="st0" d="M256.24,252.48c9.25,0,17.12,2.27,23.61,6.8c6.48,4.54,9.72,10.01,9.72,16.43v52.89
	c0,6.45-3.25,11.93-9.76,16.45c-6.51,4.52-14.37,6.78-23.57,6.78c-9.2,0-17.02-2.27-23.45-6.8c-6.43-4.54-9.65-10.01-9.65-16.43
	v-52.89c0-6.45,3.25-11.93,9.76-16.45C239.4,254.74,247.18,252.48,256.24,252.48z M267.68,275.43c0-2.34-1.16-4.31-3.47-5.92
	c-2.31-1.61-5.15-2.42-8.5-2.42c-3.31,0-6.14,0.81-8.5,2.42c-2.36,1.61-3.55,3.59-3.55,5.92v53.06c0,2.3,1.18,4.27,3.55,5.89
	c2.36,1.63,5.2,2.44,8.5,2.44c3.36,0,6.19-0.81,8.5-2.44c2.31-1.63,3.47-3.59,3.47-5.89V275.43z"/>
<path class="st0" d="M339.67,252.48h15.59l-15.43,98.13h-14.29l-8.39-53.53l-7.9,53.53h-14.24l-16.51-98.13h15.59l7.8,52.56
	l7.15-52.56h15.59l7.8,52.56L339.67,252.48z"/>
<path class="st0" d="M350.6,348.41v-92.71h54.92v13.98h-35.63v25.41h26.02v13.98h-26.02v25.36h35.63v13.98H350.6z"/>
<path class="st0" d="M431.45,253.65c9.65,0,16.72,2.25,21.21,6.75c3.99,3.93,5.98,9.39,5.98,16.37v14.09
	c0,6.88-3.08,12.67-9.23,17.38l12.82,42.37h-18.67L433,313.98c-0.5,0.04-1.03,0.05-1.57,0.05h-9.93v36.57H404.2v-96.96H431.45z
	 M441.77,277.04c0-5.63-3.28-8.45-9.85-8.45h-10.41v30.99h10.41c2.76,0,5.09-0.82,7-2.47c1.9-1.65,2.85-3.62,2.85-5.93V277.04z"/>
<path class="st1" d="M462.11,347.74v-91.39h40.89v13.78h-26.53v25.05h19.38v13.78h-19.38v25h26.53v13.78H462.11z"/>
<path class="st1" d="M558,325.9c0,6.01-2.21,11.16-6.63,15.43c-4.42,4.28-9.73,6.41-15.93,6.41h-22.56v-91.39h22.56
	c6.27,0,11.59,2.14,15.98,6.41c4.39,4.28,6.58,9.4,6.58,15.38V325.9z M527.24,334.12h8.64c2.29,0,4.22-0.79,5.78-2.38
	c1.56-1.59,2.34-3.45,2.34-5.59v-47.8c0-2.17-0.8-4.03-2.4-5.59c-1.6-1.55-3.51-2.33-5.73-2.33h-8.64V334.12z"/>
</svg>
