<?xml version="1.0" encoding="utf-8"?>
<!-- Generator: Adobe Illustrator 24.0.2, SVG Export Plug-In . SVG Version: 6.00 Build 0)  -->
<svg version="1.1" id="Layer_1" xmlns="http://www.w3.org/2000/svg" xmlns:xlink="http://www.w3.org/1999/xlink" x="0px" y="0px"
	 width="600px" height="600px" viewBox="0 0 600 600" style="enable-background:new 0 0 600 600;" xml:space="preserve">
<style type="text/css">
	.st0{fill:#FFFFFF;}
</style>
<g>
	<path class="st0" d="M283.05,438.82c-35.32,0-64.05-28.73-64.05-64.05c0-35.31,28.73-64.05,64.05-64.05
		c35.31,0,64.05,28.73,64.05,64.05C347.1,410.09,318.36,438.82,283.05,438.82z M283.05,328.89c-25.3,0-45.89,20.58-45.89,45.89
		c0,25.31,20.59,45.89,45.89,45.89c25.3,0,45.88-20.58,45.88-45.89C328.93,349.47,308.35,328.89,283.05,328.89z"/>
	<path class="st0" d="M132.28,264.72c-21.62,0-39.22-17.59-39.22-39.22c0-21.62,17.59-39.22,39.22-39.22
		c21.62,0,39.21,17.59,39.21,39.22C171.5,247.13,153.91,264.72,132.28,264.72z M132.28,204.45c-11.61,0-21.06,9.44-21.06,21.05
		c0,11.61,9.45,21.05,21.06,21.05c11.61,0,21.06-9.44,21.06-21.05C153.34,213.9,143.89,204.45,132.28,204.45z"/>
	<path class="st0" d="M472.14,343.09c-18.95,0-34.37-15.42-34.37-34.36c0-18.96,15.42-34.38,34.37-34.38
		c18.95,0,34.36,15.42,34.36,34.38C506.5,327.68,491.08,343.09,472.14,343.09z M472.14,292.51c-8.94,0-16.21,7.27-16.21,16.21
		c0,8.94,7.27,16.2,16.21,16.2c8.94,0,16.2-7.26,16.2-16.2C488.34,299.78,481.07,292.51,472.14,292.51z"/>
	<path class="st0" d="M384.99,518.48c-23.07,0-41.84-18.77-41.84-41.83c0-23.07,18.77-41.83,41.84-41.83
		c23.06,0,41.82,18.76,41.82,41.83C426.81,499.71,408.05,518.48,384.99,518.48z M384.99,452.98c-13.05,0-23.67,10.62-23.67,23.67
		c0,13.05,10.62,23.67,23.67,23.67c13.05,0,23.65-10.61,23.65-23.67C408.64,463.6,398.03,452.98,384.99,452.98z"/>
	<path class="st0" d="M172.05,439.9c-14.82,0-26.87-12.05-26.87-26.88c0-14.81,12.06-26.87,26.87-26.87
		c14.81,0,26.87,12.05,26.87,26.87C198.92,427.85,186.86,439.9,172.05,439.9z M172.05,404.32c-4.8,0-8.72,3.9-8.72,8.7
		c0,4.81,3.91,8.72,8.72,8.72c4.8,0,8.71-3.91,8.71-8.72C180.76,408.22,176.85,404.32,172.05,404.32z"/>
	<path class="st0" d="M235.3,540.08c-19.32,0-35.03-15.71-35.03-35.02c0-19.3,15.71-35.02,35.03-35.02
		c19.31,0,35.02,15.72,35.02,35.02C270.32,524.37,254.61,540.08,235.3,540.08z M235.3,488.2c-9.3,0-16.87,7.56-16.87,16.86
		c0,9.3,7.57,16.86,16.87,16.86c9.3,0,16.86-7.56,16.86-16.86C252.16,495.76,244.6,488.2,235.3,488.2z"/>
	<path class="st0" d="M379.89,161.44c-28.06,0-50.88-22.83-50.88-50.88c0-28.06,22.83-50.89,50.88-50.89
		c28.06,0,50.9,22.83,50.9,50.89C430.78,138.62,407.95,161.44,379.89,161.44z M379.89,77.83c-18.04,0-32.72,14.68-32.72,32.73
		s14.68,32.72,32.72,32.72c18.05,0,32.73-14.67,32.73-32.72S397.94,77.83,379.89,77.83z"/>
	<polygon class="st0" points="356.41,460.98 315.14,419.71 327.98,406.86 369.25,448.14 	"/>
	
		<rect x="191.21" y="228.03" transform="matrix(0.7071 -0.7071 0.7071 0.7071 -147.8258 227.161)" class="st0" width="18.16" height="127.98"/>
	
		<rect x="330.67" y="327.4" transform="matrix(0.9454 -0.3258 0.3258 0.9454 -88.1262 146.7938)" class="st0" width="126.97" height="18.15"/>
	
		<rect x="187.52" y="390.3" transform="matrix(0.9454 -0.3258 0.3258 0.9454 -118.5846 90.7645)" class="st0" width="48.27" height="18.15"/>
	
		<rect x="240.64" y="227.92" transform="matrix(0.344 -0.939 0.939 0.344 -3.7271 468.6664)" class="st0" width="185.81" height="18.16"/>
	
		<rect x="224.46" y="442.45" transform="matrix(0.3439 -0.939 0.939 0.3439 -256.7408 535.5956)" class="st0" width="60.91" height="18.16"/>
</g>
</svg>
