<?xml version="1.0" encoding="utf-8"?>
<svg version="1.1" id="Twitter-Icon" xmlns="http://www.w3.org/2000/svg" xmlns:xlink="http://www.w3.org/1999/xlink" x="0px" y="0px"
	 width="244.2px" height="198.4px" viewBox="0 0 244.2 198.4" style="enable-background:new 0 0 244.2 198.4;" xml:space="preserve"
	>
<style type="text/css">
	.st0{fill:#FFFFFF;}
</style>
<g>
	<path class="st0" d="M244.2,23.5c-8.9,4-18.6,6.7-28.8,7.9c10.4-6.2,18.3-16,22.1-27.7c-9.7,5.7-20.4,9.9-31.9,12.2
		C196.5,6.1,183.5,0,169.1,0C141.5,0,119,22.4,119,50.1c0,3.9,0.5,7.7,1.3,11.4C78.6,59.4,41.7,39.5,17,9.2
		c-4.3,7.4-6.8,16-6.8,25.2c0,17.4,8.9,32.7,22.3,41.7c-8.2-0.2-15.9-2.5-22.6-6.3v0.6c0,24.3,17.3,44.6,40.2,49.2
		c-4.2,1.1-8.6,1.7-13.2,1.7c-3.2,0-6.3-0.3-9.5-0.9c6.4,19.9,24.9,34.3,46.8,34.8C57,168.6,35.4,176.6,12,176.6
		c-4,0-8-0.2-11.9-0.7c22.2,14.2,48.5,22.5,76.8,22.5c92.1,0,142.5-76.3,142.5-142.5l-0.2-6.5C229,42.3,237.5,33.5,244.2,23.5
		L244.2,23.5z"/>
</g>
</svg>
