<?xml version="1.0" encoding="utf-8"?>
<svg version="1.1" id="LinkedIn-Icon" xmlns="http://www.w3.org/2000/svg" xmlns:xlink="http://www.w3.org/1999/xlink" x="0px" y="0px"
	 width="203.6px" height="194.6px" viewBox="0 0 203.6 194.6" style="enable-background:new 0 0 203.6 194.6;" xml:space="preserve"
	>
<style type="text/css">
	.st0{fill:#FFFFFF;}
</style>
<g>
	<path class="st0" d="M203.6,119.3v75.3H160v-70.2c0-17.6-6.3-29.7-22.1-29.7c-12.1,0-19.2,8.1-22.4,16c-1.1,2.8-1.4,6.7-1.4,10.6
		v73.3H70.4c0,0,0.6-119,0-131.3H114v18.6c-0.1,0.1-0.2,0.3-0.3,0.4h0.3v-0.4c5.8-8.9,16.2-21.7,39.3-21.7
		C182.1,60.2,203.6,79,203.6,119.3L203.6,119.3z M24.7,0C9.8,0,0,9.8,0,22.7c0,12.6,9.5,22.7,24.1,22.7h0.3
		c15.2,0,24.7-10.1,24.7-22.7C48.8,9.8,39.6,0,24.7,0L24.7,0z M2.6,194.6h43.6V63.3H2.6V194.6z"/>
</g>
</svg>
