<?xml version="1.0" encoding="utf-8"?>
<!-- Generator: Adobe Illustrator 23.0.6, SVG Export Plug-In . SVG Version: 6.00 Build 0)  -->
<svg version="1.1" id="Logo_w_x2F__Words" xmlns="http://www.w3.org/2000/svg" xmlns:xlink="http://www.w3.org/1999/xlink" x="0px"
	 y="0px" viewBox="0 0 142.4 57.1" style="enable-background:new 0 0 142.4 57.1;" xml:space="preserve">
<style type="text/css">
	.st0{fill:#303133;}
</style>
<g>
	<g>
		<path class="st0" d="M27.6,16.5h3.3c4.8,0,6.5-2.1,7.1-4.6C38.7,9.1,37.9,7,33,7h-3L27.6,16.5z M19.4,0.7h18.7
			c12.7,0,13.5,6.5,12.4,11c-1.6,6.5-7.1,11.1-19.1,11.1h-5.3L22.6,37H10.5L19.4,0.7z"/>
		<path class="st0" d="M73.4,13.3c1.3-5.3,1-7.6-3-7.6c-4.8,0-6,3.3-8.4,12.8C59.4,29.2,59.2,32,64.2,32c4.4,0,5.8-3.6,7.3-9.3h11.6
			L82.8,24c-1.9,7.8-6.4,13.7-21.4,13.7c-15.4,0-14.6-8.2-12-19.1C51.8,9.3,54.8,0,71.8,0c10.6,0,15.6,3.3,13.5,11.8L85,13.3H73.4z"
			/>
		<polygon class="st0" points="91.4,0.7 109.1,0.7 109.5,24.5 109.7,24.5 121.6,0.7 139.1,0.7 130.2,37 119,37 125.9,8.7 125.7,8.7 
			111,37 101.7,37 100.3,8.7 100.2,8.7 93.3,37 82.5,37 		"/>
		<path class="st0" d="M134.4,34.6c0.3,0,0.6,0,0.6-0.4c0-0.3-0.3-0.4-0.6-0.4h-0.5v0.8C133.9,34.6,134.4,34.6,134.4,34.6z
			 M134.3,34.9h-0.4V36h-0.4v-2.6h1c0.6,0,1,0.2,1,0.8c0,0.5-0.3,0.7-0.7,0.7l0.8,1.1H135L134.3,34.9z M134.4,33
			c-1,0-1.8,0.8-1.8,1.8s0.8,1.8,1.8,1.8s1.8-0.8,1.8-1.8C136.2,33.7,135.4,33,134.4,33 M134.4,32.5c1.2,0,2.3,0.9,2.3,2.3
			c0,1.4-1.1,2.3-2.3,2.3s-2.3-0.9-2.3-2.3C132.1,33.4,133.2,32.5,134.4,32.5"/>
		<polygon class="st0" points="128.3,44.7 129.7,39 7,44.7 		"/>
	</g>
	<g>
		<path class="st0" d="M69,54.7l-0.5-1.3h-2L66,54.7h-0.7L67,50h0.8l1.7,4.7H69z M67.5,50.6L67.5,50.6l-0.8,2.3h1.6L67.5,50.6z"/>
		<path class="st0" d="M74.6,54.7v-0.2c-0.4,0.1-0.8,0.3-1.2,0.3c-0.4,0-0.7-0.1-1-0.4C72.1,54.1,72,53.6,72,53
			c0-0.7,0.2-1.2,0.6-1.5c0.3-0.2,0.7-0.3,1.1-0.3c0.3,0,0.6,0.1,0.9,0.2v-1.5h0.6v4.9h-0.6V54.7z M74.5,54v-2.3
			c-0.2-0.1-0.5-0.2-0.8-0.2c-0.8,0-1.2,0.4-1.2,1.3c0,0.9,0.4,1.3,0.9,1.3C73.9,54.3,74.2,54.2,74.5,54z"/>
		<path class="st0" d="M76.4,50.4v-0.6h0.7v0.6H76.4z M77,54.7h-0.6v-3.5H77V54.7L77,54.7z"/>
		<path class="st0" d="M79.1,54.7l-1.3-3.5h0.7l1,2.9l0,0l1-2.9h0.6l-1.3,3.5H79.1z"/>
		<path class="st0" d="M81.8,50.4v-0.6h0.7v0.6H81.8z M82.4,54.7h-0.6v-3.5h0.6V54.7L82.4,54.7z"/>
		<path class="st0" d="M85.5,54.6c-0.3,0.2-0.6,0.2-1,0.2c-0.3,0-0.6,0-1-0.1v-0.5c0.3,0,0.7,0.1,0.9,0.1c0.3,0,0.5,0,0.6-0.1
			c0.2-0.1,0.3-0.3,0.3-0.4c0-0.3-0.2-0.4-0.4-0.5c-0.2-0.1-0.4-0.1-0.6-0.2c-0.6-0.2-0.8-0.4-0.8-1c0-0.3,0.1-0.7,0.4-0.8
			s0.6-0.2,0.9-0.2s0.6,0,0.9,0.1v0.5c-0.3,0-0.6-0.1-0.9-0.1c-0.2,0-0.4,0-0.6,0.1s-0.3,0.3-0.3,0.4c0,0.2,0.1,0.4,0.4,0.5
			c0.2,0.1,0.3,0.1,0.6,0.2c0.6,0.1,0.9,0.4,0.9,1C85.9,54.1,85.8,54.4,85.5,54.6z"/>
		<path class="st0" d="M86.9,50.4v-0.6h0.7v0.6H86.9z M87.5,54.7h-0.6v-3.5h0.6V54.7L87.5,54.7z"/>
		<path class="st0" d="M88.9,54.4c-0.4-0.3-0.5-0.8-0.5-1.5s0.2-1.2,0.5-1.5s0.7-0.4,1.2-0.4c0.4,0,0.9,0.1,1.2,0.4
			c0.3,0.3,0.5,0.8,0.5,1.5s-0.2,1.2-0.5,1.5s-0.7,0.4-1.2,0.4C89.7,54.8,89.3,54.7,88.9,54.4z M91.2,53c0-0.9-0.3-1.3-1.1-1.3
			c-0.8,0-1,0.4-1,1.3c0,0.9,0.3,1.4,1.1,1.4C90.9,54.3,91.2,53.9,91.2,53z"/>
		<path class="st0" d="M95.2,54.7v-2.2c0-0.6-0.3-0.8-0.8-0.8c-0.3,0-0.6,0.1-1,0.2v2.8h-0.6v-3.5h0.5v0.2c0.4-0.1,0.9-0.3,1.3-0.3
			s0.8,0.1,1,0.4c0.2,0.3,0.3,0.6,0.3,1v2.2C95.9,54.7,95.2,54.7,95.2,54.7z"/>
		<path class="st0" d="M99.1,54.4c-0.4-0.3-0.5-0.8-0.5-1.5s0.2-1.2,0.5-1.5s0.7-0.4,1.2-0.4c0.4,0,0.9,0.1,1.2,0.4
			c0.3,0.3,0.5,0.8,0.5,1.5s-0.2,1.2-0.5,1.5s-0.7,0.4-1.2,0.4C99.8,54.8,99.4,54.7,99.1,54.4z M101.3,53c0-0.9-0.3-1.3-1.1-1.3
			c-0.8,0-1,0.4-1,1.3c0,0.9,0.3,1.4,1.1,1.4C101,54.3,101.3,53.9,101.3,53z"/>
		<path class="st0" d="M102.9,54.7v-3h-0.6v-0.5h0.6c0-0.4,0-0.9,0.4-1.2c0.2-0.2,0.6-0.3,1-0.3c0.2,0,0.4,0,0.6,0v0.5
			c-0.2,0-0.4,0-0.5,0c-0.7,0-0.8,0.3-0.8,1h1v0.5h-1v3H102.9z"/>
		<path class="st0" d="M107.2,54.7V50h0.6v4.7H107.2z"/>
		<path class="st0" d="M111.7,54.7v-2.2c0-0.6-0.3-0.8-0.8-0.8c-0.3,0-0.6,0.1-1,0.2v2.8h-0.6v-3.5h0.5v0.2c0.4-0.1,0.9-0.3,1.3-0.3
			s0.8,0.1,1,0.4c0.2,0.3,0.3,0.6,0.3,1v2.2C112.4,54.7,111.7,54.7,111.7,54.7z"/>
		<path class="st0" d="M115.3,54.6c-0.3,0.2-0.6,0.2-1,0.2c-0.3,0-0.6,0-1-0.1v-0.5c0.3,0,0.7,0.1,0.9,0.1c0.3,0,0.5,0,0.6-0.1
			c0.2-0.1,0.3-0.3,0.3-0.4c0-0.3-0.2-0.4-0.4-0.5c-0.2-0.1-0.4-0.1-0.6-0.2c-0.6-0.2-0.8-0.4-0.8-1c0-0.3,0.1-0.7,0.4-0.8
			s0.6-0.2,0.9-0.2s0.6,0,0.9,0.1v0.5c-0.3,0-0.6-0.1-0.9-0.1c-0.2,0-0.4,0-0.6,0.1s-0.3,0.3-0.3,0.4c0,0.2,0.1,0.4,0.4,0.5
			c0.2,0.1,0.3,0.1,0.6,0.2c0.6,0.1,0.9,0.4,0.9,1C115.7,54.1,115.6,54.4,115.3,54.6z"/>
		<path class="st0" d="M116.7,50.4v-0.6h0.7v0.6H116.7z M117.3,54.7h-0.6v-3.5h0.6V54.7L117.3,54.7z"/>
		<path class="st0" d="M120.7,54.3c-0.3,0.1-0.7,0.2-1.1,0.2s-0.7-0.1-0.9-0.4c-0.3-0.3-0.4-0.8-0.4-1.4c0-0.6,0.2-1.1,0.6-1.4
			c0.3-0.2,0.6-0.3,1.1-0.3c0.3,0,0.7,0.1,0.9,0.2v-0.1h0.4v3.3c0,0.5-0.1,0.9-0.4,1.2S120,56,119.5,56c-0.3,0-0.7,0-1,0v-0.5
			c0.3,0,0.6,0.1,0.9,0.1c0.4,0,0.8,0,1-0.2s0.2-0.6,0.2-0.8L120.7,54.3L120.7,54.3z M120.7,51.8c-0.2-0.1-0.5-0.2-0.7-0.2
			c-0.7,0-1.1,0.4-1.1,1.2c0,0.9,0.3,1.2,0.9,1.2c0.3,0,0.6-0.1,0.9-0.2C120.7,53.8,120.7,51.8,120.7,51.8z"/>
		<path class="st0" d="M124.9,54.7v-2.2c0-0.6-0.3-0.8-0.8-0.8c-0.3,0-0.6,0.1-1,0.2v2.8h-0.6v-4.9h0.6v1.6c0.4-0.1,0.8-0.3,1.1-0.3
			c0.4,0,0.7,0.1,1,0.4c0.2,0.3,0.3,0.6,0.3,1v2.2H124.9z"/>
		<path class="st0" d="M127.8,54.8c-0.4,0-0.8-0.1-0.9-0.6c-0.1-0.3-0.1-0.6-0.1-0.9v-1.6h-0.6v-0.5h0.6l0.1-1.1h0.5v1.1h1v0.5h-1
			v1.5c0,0.2,0,0.5,0.1,0.7c0.1,0.3,0.2,0.4,0.5,0.4c0.2,0,0.4,0,0.5-0.1v0.5C128.2,54.7,128,54.8,127.8,54.8z"/>
	</g>
</g>
</svg>
