<?xml version="1.0" encoding="utf-8"?>
<!-- Generator: Adobe Illustrator 24.0.0, SVG Export Plug-In . SVG Version: 6.00 Build 0)  -->
<svg version="1.1" id="Layer_1" xmlns="http://www.w3.org/2000/svg" xmlns:xlink="http://www.w3.org/1999/xlink" x="0px" y="0px"
	 width="250.3px" height="47px" viewBox="0 0 250.3 47" style="enable-background:new 0 0 250.3 47;" xml:space="preserve">
<style type="text/css">
	.st0{fill:#ED6E1E;}
	.st1{fill:#FFFFFF;}
	.st2{fill:#FCD5B8;}
	.st3{fill:#F28D4A;}
	.st4{fill:#F6E8E0;}
	.st5{fill:#FBF8F6;}
	.st6{fill:#F18339;}
</style>
<path class="st0" d="M73.2,27c0,0.7-0.1,1.3-0.4,1.8c-0.3,0.5-0.6,0.9-1.1,1.3c-0.4,0.3-1,0.6-1.6,0.8s-1.3,0.3-2.1,0.3
	c-0.8,0-1.5-0.1-2.2-0.3c-0.7-0.2-1.2-0.5-1.7-0.9c-0.4-0.4-0.8-0.9-1.1-1.5s-0.4-1.2-0.4-1.9h1.7c0,0.9,0.3,1.7,1,2.2
	c0.6,0.5,1.5,0.8,2.5,0.8c1.2,0,2.1-0.2,2.6-0.7s0.9-1.1,0.9-1.8c0-0.3,0-0.6-0.1-0.8c-0.1-0.2-0.3-0.5-0.5-0.7s-0.6-0.4-1.1-0.5
	c-0.5-0.2-1.1-0.3-1.8-0.4c-0.8-0.1-1.4-0.3-2-0.5c-0.6-0.2-1.1-0.4-1.5-0.7c-0.4-0.3-0.7-0.7-0.9-1.1s-0.3-0.9-0.3-1.5
	s0.1-1.1,0.3-1.6c0.2-0.5,0.5-0.9,1-1.2c0.4-0.3,0.9-0.6,1.5-0.8c0.6-0.2,1.3-0.3,2-0.3c0.8,0,1.4,0.1,2,0.3
	c0.6,0.2,1.1,0.5,1.5,0.9s0.7,0.8,1,1.4c0.2,0.5,0.3,1.1,0.3,1.8h-1.7c0-0.8-0.3-1.5-0.8-1.9c-0.5-0.5-1.3-0.7-2.3-0.7
	c-1.1,0-1.8,0.2-2.3,0.6s-0.8,0.9-0.8,1.6c0,0.3,0.1,0.6,0.1,0.8s0.3,0.4,0.5,0.6c0.3,0.2,0.6,0.3,1.1,0.5s1,0.3,1.7,0.4
	c0.8,0.2,1.4,0.3,2,0.5c0.6,0.2,1.1,0.4,1.5,0.8s0.7,0.7,1,1.1C73.1,25.8,73.2,26.4,73.2,27"/>
<path class="st0" d="M83.9,26.9c0,0.6-0.1,1.2-0.3,1.7c-0.2,0.5-0.5,1-0.9,1.3c-0.4,0.4-0.8,0.7-1.4,0.9c-0.5,0.2-1.1,0.3-1.7,0.3
	s-1.2-0.1-1.7-0.3c-0.5-0.2-1-0.5-1.4-0.9s-0.7-0.8-0.9-1.3c-0.2-0.5-0.3-1.1-0.3-1.7v-8.3H77v2.2h6.8v1.6H77v4.5
	c0,0.4,0.1,0.7,0.2,1.1c0.1,0.3,0.3,0.6,0.5,0.8c0.2,0.2,0.5,0.4,0.8,0.5s0.7,0.2,1.1,0.2c0.8,0,1.4-0.3,1.9-0.8
	c0.5-0.5,0.7-1.1,0.7-1.9v-0.9h1.7L83.9,26.9C83.9,26.9,83.9,26.9,83.9,26.9z"/>
<path class="st0" d="M90.8,29.6c0.5,0,0.9-0.1,1.3-0.3c0.4-0.2,0.8-0.5,1.1-0.8s0.6-0.7,0.7-1.2s0.3-1,0.3-1.5c0-0.5-0.1-1-0.3-1.5
	s-0.4-0.9-0.7-1.2c-0.3-0.3-0.7-0.6-1.1-0.8c-0.4-0.2-0.9-0.3-1.3-0.3s-0.9,0.1-1.3,0.3c-0.4,0.2-0.8,0.5-1.1,0.8s-0.6,0.8-0.7,1.2
	c-0.2,0.5-0.3,1-0.3,1.5c0,0.5,0.1,1,0.3,1.5s0.4,0.9,0.7,1.2c0.3,0.3,0.7,0.6,1.1,0.8S90.3,29.6,90.8,29.6 M90.8,20.5
	c0.7,0,1.4,0.1,2,0.4c0.6,0.3,1.2,0.7,1.6,1.2c0.4,0.5,0.8,1,1.1,1.7c0.3,0.7,0.4,1.3,0.4,2.1s-0.1,1.4-0.4,2.1
	c-0.3,0.6-0.6,1.2-1.1,1.7s-1,0.9-1.6,1.1c-0.6,0.3-1.3,0.4-2,0.4c-0.7,0-1.4-0.1-2-0.4c-0.6-0.3-1.2-0.7-1.6-1.1s-0.8-1-1.1-1.7
	s-0.4-1.3-0.4-2.1s0.1-1.4,0.4-2.1s0.6-1.2,1.1-1.7c0.5-0.5,1-0.9,1.6-1.2S90.1,20.5,90.8,20.5"/>
<path class="st0" d="M107.2,27.8c-0.3,1-0.9,1.8-1.8,2.5c-0.8,0.6-1.8,0.9-3,0.9c-0.7,0-1.3-0.1-2-0.4c-0.6-0.3-1.2-0.7-1.6-1.1
	s-0.8-1-1.1-1.7c-0.3-0.7-0.4-1.3-0.4-2.1c0-0.7,0.1-1.4,0.4-2.1c0.3-0.7,0.6-1.2,1.1-1.7s1-0.9,1.6-1.2c0.6-0.3,1.3-0.4,2-0.4
	c0.6,0,1.1,0.1,1.6,0.3s0.9,0.4,1.4,0.7s0.8,0.7,1.1,1.1c0.3,0.4,0.5,0.9,0.7,1.4h-1.8c-0.3-0.5-0.7-1-1.2-1.3s-1.1-0.5-1.8-0.5
	c-0.5,0-0.9,0.1-1.3,0.3s-0.8,0.5-1.1,0.8s-0.6,0.7-0.7,1.2c-0.2,0.5-0.3,0.9-0.3,1.4s0.1,1,0.3,1.5c0.2,0.5,0.4,0.8,0.7,1.2
	c0.3,0.3,0.7,0.6,1.1,0.8c0.4,0.2,0.9,0.3,1.3,0.3c0.7,0,1.3-0.2,1.8-0.5c0.5-0.3,0.9-0.8,1.2-1.3L107.2,27.8
	C107.2,27.8,107.2,27.8,107.2,27.8z"/>
<polygon class="st0" points="118.3,30.9 116.3,30.9 112.8,25.8 110.9,27.6 110.9,30.9 109.2,30.9 109.2,16.3 110.9,16.3 110.9,25.3 
	115.5,20.8 118,20.8 114,24.6 "/>
<path class="st1" d="M125.2,30.9h-1.6v-9.6h1.6V30.9z M125.2,19.8h-1.6v-1.9h1.6V19.8z"/>
<path class="st1" d="M136.4,30.9h-1.6v-5.9c0-0.8-0.2-1.4-0.6-1.8c-0.4-0.5-1-0.7-1.8-0.7c-0.4,0-0.7,0.1-1,0.2s-0.6,0.3-0.8,0.5
	c-0.2,0.2-0.4,0.5-0.5,0.8c-0.1,0.3-0.2,0.6-0.2,1v5.9h-1.6v-9.7h1.5v1c0.3-0.4,0.7-0.7,1.2-1c0.5-0.2,1-0.3,1.6-0.3
	c0.6,0,1.1,0.1,1.6,0.3s0.9,0.5,1.2,0.8c0.3,0.4,0.6,0.8,0.7,1.3s0.2,1,0.2,1.7L136.4,30.9L136.4,30.9z"/>
<path class="st1" d="M149.6,27.1c0,0.6-0.1,1.2-0.3,1.6c-0.2,0.5-0.5,0.9-0.8,1.3s-0.8,0.6-1.3,0.8s-1,0.3-1.6,0.3
	c-0.6,0-1.1-0.1-1.6-0.3s-0.9-0.5-1.3-0.8s-0.6-0.8-0.9-1.3c-0.2-0.5-0.3-1-0.3-1.6v-7.9h1.6v2.1h6.5v1.5h-6.5v4.3
	c0,0.4,0.1,0.7,0.2,1c0.1,0.3,0.3,0.6,0.5,0.8c0.2,0.2,0.5,0.4,0.8,0.5c0.3,0.1,0.6,0.2,1,0.2c0.7,0,1.3-0.2,1.8-0.7
	c0.4-0.5,0.7-1.1,0.7-1.8v-0.9h1.6L149.6,27.1L149.6,27.1z"/>
<path class="st1" d="M159.7,30.9h-1.6v-5.9c0-0.8-0.2-1.4-0.6-1.8c-0.4-0.5-1-0.7-1.7-0.7c-0.4,0-0.7,0.1-1,0.2
	c-0.3,0.1-0.6,0.3-0.8,0.5s-0.4,0.5-0.5,0.8c-0.1,0.3-0.2,0.6-0.2,1v5.9h-1.6V17h1.6v5.3c0.3-0.4,0.7-0.7,1.2-0.9s1-0.3,1.6-0.3
	c0.6,0,1.1,0.1,1.6,0.3s0.9,0.5,1.2,0.8c0.3,0.4,0.6,0.8,0.7,1.3s0.2,1,0.2,1.7L159.7,30.9L159.7,30.9z"/>
<path class="st1" d="M169.3,25.1c-0.1-0.4-0.3-0.7-0.5-1.1c-0.2-0.3-0.4-0.6-0.7-0.8c-0.3-0.2-0.6-0.4-0.9-0.5s-0.7-0.2-1-0.2
	c-0.3,0-0.7,0.1-1,0.2s-0.6,0.3-0.9,0.5c-0.3,0.2-0.5,0.5-0.8,0.8s-0.4,0.7-0.5,1.1L169.3,25.1L169.3,25.1L169.3,25.1z M170.8,27.9
	c-0.3,1-0.9,1.8-1.7,2.4c-0.8,0.6-1.7,0.8-2.9,0.8c-0.7,0-1.4-0.1-1.9-0.4c-0.6-0.3-1.1-0.6-1.6-1.1s-0.8-1-1.1-1.6
	c-0.3-0.6-0.4-1.3-0.4-2c0-0.7,0.1-1.4,0.4-2c0.3-0.6,0.6-1.2,1-1.6c0.4-0.5,0.9-0.8,1.5-1.1s1.2-0.4,1.9-0.4c0.6,0,1.2,0.1,1.8,0.4
	c0.6,0.3,1.1,0.6,1.6,1.1c0.5,0.5,0.8,1,1.1,1.7c0.3,0.7,0.4,1.4,0.4,2.3h-8.1c0.1,0.5,0.2,1,0.4,1.3c0.2,0.4,0.5,0.7,0.8,1
	s0.6,0.5,1,0.6c0.4,0.1,0.8,0.2,1.2,0.2c0.7,0,1.3-0.2,1.8-0.5s0.9-0.8,1.1-1.3H170.8z"/>
<path class="st0" d="M188,26.6c-0.2,0.7-0.6,1.3-1,1.9c-0.4,0.6-0.9,1-1.4,1.4c-0.5,0.4-1.1,0.7-1.8,0.9c-0.7,0.2-1.4,0.3-2.1,0.3
	c-0.9,0-1.8-0.2-2.6-0.6c-0.8-0.4-1.6-0.9-2.2-1.5c-0.6-0.7-1.1-1.4-1.5-2.3S175,25,175,24c0-1,0.2-1.9,0.5-2.8s0.9-1.6,1.5-2.3
	c0.6-0.6,1.3-1.2,2.2-1.5c0.8-0.4,1.7-0.6,2.6-0.6c0.8,0,1.5,0.1,2.2,0.3s1.3,0.5,1.8,1c0.5,0.4,1,0.9,1.4,1.4
	c0.4,0.6,0.7,1.2,0.9,1.8h-1.8c-0.4-0.9-0.9-1.6-1.7-2.1c-0.8-0.5-1.7-0.8-2.8-0.8c-0.7,0-1.4,0.1-2,0.4c-0.6,0.3-1.2,0.7-1.6,1.2
	c-0.5,0.5-0.8,1.1-1.1,1.8s-0.4,1.4-0.4,2.1s0.1,1.5,0.4,2.1c0.3,0.7,0.6,1.3,1.1,1.8c0.5,0.5,1,0.9,1.6,1.2c0.6,0.3,1.3,0.4,2,0.4
	c1,0,1.9-0.3,2.7-0.8s1.4-1.3,1.8-2.2L188,26.6L188,26.6z"/>
<path class="st0" d="M198.8,30.9h-1.7v-6.2c0-0.8-0.2-1.4-0.6-1.9c-0.4-0.5-1-0.7-1.8-0.7c-0.4,0-0.7,0.1-1.1,0.2s-0.6,0.3-0.8,0.5
	c-0.2,0.2-0.4,0.5-0.6,0.8c-0.1,0.3-0.2,0.7-0.2,1v6.2h-1.7V16.3h1.7v5.5c0.3-0.4,0.8-0.7,1.3-0.9s1-0.3,1.6-0.3
	c0.6,0,1.2,0.1,1.7,0.3s0.9,0.5,1.2,0.9c0.3,0.4,0.6,0.8,0.8,1.4s0.3,1.1,0.3,1.7V30.9z"/>
<path class="st0" d="M209.4,25.9c0-0.5-0.1-1-0.3-1.5c-0.2-0.5-0.4-0.9-0.8-1.2s-0.7-0.6-1.1-0.8s-0.9-0.3-1.3-0.3s-0.9,0.1-1.3,0.3
	s-0.8,0.5-1.1,0.8s-0.5,0.7-0.7,1.2c-0.2,0.5-0.3,0.9-0.3,1.5c0,0.5,0.1,1,0.3,1.4c0.2,0.5,0.4,0.8,0.7,1.2c0.3,0.3,0.7,0.6,1.1,0.8
	s0.9,0.3,1.3,0.3s0.9-0.1,1.3-0.3c0.4-0.2,0.8-0.5,1.1-0.8c0.3-0.3,0.6-0.7,0.8-1.2C209.4,26.9,209.4,26.4,209.4,25.9 M211.1,30.9
	h-1.6v-1.6c-0.4,0.5-0.8,1-1.5,1.3c-0.6,0.4-1.3,0.5-2.1,0.5c-0.7,0-1.4-0.1-2-0.4s-1.1-0.7-1.6-1.2c-0.4-0.5-0.8-1-1.1-1.7
	c-0.3-0.7-0.4-1.3-0.4-2.1c0-0.7,0.1-1.4,0.4-2.1c0.3-0.7,0.6-1.2,1.1-1.7c0.4-0.5,1-0.9,1.6-1.2c0.6-0.3,1.3-0.4,2-0.4
	c0.8,0,1.4,0.2,2.1,0.5c0.6,0.4,1.1,0.8,1.5,1.3v-1.6h1.6V30.9z"/>
<path class="st0" d="M222.5,30.9h-1.7v-6.2c0-0.8-0.2-1.4-0.6-1.9s-1-0.8-1.9-0.8c-0.4,0-0.7,0.1-1.1,0.2s-0.6,0.3-0.8,0.6
	c-0.2,0.2-0.4,0.5-0.6,0.8s-0.2,0.7-0.2,1v6.2H214V20.8h1.6v1.1c0.3-0.4,0.8-0.8,1.3-1c0.5-0.2,1.1-0.4,1.7-0.4s1.2,0.1,1.7,0.3
	s0.9,0.5,1.2,0.9c0.3,0.4,0.6,0.8,0.8,1.4s0.3,1.1,0.3,1.7L222.5,30.9L222.5,30.9z"/>
<path class="st0" d="M233.8,30.9h-1.7v-6.2c0-0.8-0.2-1.4-0.6-1.9s-1-0.8-1.9-0.8c-0.4,0-0.7,0.1-1.1,0.2s-0.6,0.3-0.8,0.6
	c-0.2,0.2-0.4,0.5-0.6,0.8s-0.2,0.7-0.2,1v6.2h-1.7V20.8h1.6v1.1c0.3-0.4,0.8-0.8,1.3-1c0.5-0.2,1.1-0.4,1.7-0.4s1.2,0.1,1.7,0.3
	s0.9,0.5,1.2,0.9c0.3,0.4,0.6,0.8,0.8,1.4s0.3,1.1,0.3,1.7V30.9z"/>
<path class="st0" d="M244.3,24.8c-0.1-0.4-0.3-0.8-0.5-1.1c-0.2-0.3-0.5-0.6-0.8-0.9c-0.3-0.2-0.6-0.4-1-0.6S241.3,22,241,22
	c-0.4,0-0.7,0.1-1,0.2c-0.4,0.1-0.7,0.3-1,0.5c-0.3,0.2-0.6,0.5-0.8,0.9c-0.2,0.3-0.4,0.7-0.5,1.2C237.7,24.8,244.3,24.8,244.3,24.8
	z M245.9,27.8c-0.4,1.1-1,1.9-1.8,2.5c-0.8,0.6-1.8,0.9-3,0.9c-0.7,0-1.4-0.1-2-0.4c-0.6-0.3-1.2-0.7-1.6-1.1
	c-0.5-0.5-0.8-1-1.1-1.7c-0.3-0.6-0.4-1.3-0.4-2.1c0-0.7,0.1-1.4,0.4-2.1c0.3-0.7,0.6-1.2,1.1-1.7c0.5-0.5,1-0.9,1.6-1.1
	s1.3-0.4,2-0.4c0.7,0,1.3,0.1,1.9,0.4s1.2,0.6,1.6,1.1c0.5,0.5,0.9,1.1,1.1,1.8c0.3,0.7,0.4,1.5,0.4,2.4h-8.5c0.1,0.5,0.2,1,0.4,1.4
	c0.2,0.4,0.5,0.8,0.8,1c0.3,0.3,0.7,0.5,1.1,0.7s0.8,0.2,1.2,0.2c0.7,0,1.3-0.2,1.8-0.5c0.5-0.3,0.9-0.8,1.2-1.4L245.9,27.8
	L245.9,27.8L245.9,27.8z"/>
<rect x="248.6" y="16.3" class="st0" width="1.7" height="14.7"/>
<path class="st2" d="M47,23.5C47,36.5,36.5,47,23.5,47S0,36.5,0,23.5S10.5,0,23.5,0C36.5,0,47,10.5,47,23.5"/>
<polygon class="st3" points="3.8,5.4 37.7,4.7 40.6,28.9 6.7,31.7 "/>
<polygon class="st3" points="40.6,29.4 54,37.2 17.7,40.9 6.7,32.4 "/>
<polygon class="st4" points="5.5,6.6 36.3,6 38.9,27.1 8.1,29.6 "/>
<path class="st5" d="M38.7,25.4L36.3,6l-15,0.3C29.7,9.1,36.4,16.3,38.7,25.4"/>
<polygon class="st6" points="3.8,5.4 3.1,6.3 5.9,31.3 6.7,31.7 "/>
<polygon class="st6" points="6.7,33.5 6.7,32.4 17.7,40.9 54,37.2 54,38.3 17.7,42 "/>
</svg>
